<?xml version="1.0" encoding="utf-8"?>
<!-- Generator: Adobe Illustrator 22.1.0, SVG Export Plug-In . SVG Version: 6.00 Build 0)  -->
<svg version="1.1" id="Layer_1" xmlns="http://www.w3.org/2000/svg" xmlns:xlink="http://www.w3.org/1999/xlink" x="0px" y="0px"
	 viewBox="0 0 200 116.2" style="enable-background:new 0 0 200 116.2;" xml:space="preserve">
<style type="text/css">
	.st0{fill:#B5B5B5;}
	.st1{fill:#B11E3B;}
	.st2{fill:#CE2D4D;}
	.st3{fill:#8B182E;}
</style>
<polygon class="st0" points="125,44.5 125,15.8 118.6,9.4 91.7,48.7 52.4,75.6 58.8,82 87.4,82 81,104.3 87.4,110.7 125,110.7 
	125,82 153.6,82 153.6,63.2 153.6,44.5 147.2,38.1 "/>
<rect x="81" y="9.4" class="st1" width="37.6" height="94.8"/>
<rect x="52.4" y="38.1" class="st1" width="94.8" height="37.6"/>
<polyline class="st2" points="81,9.4 99.8,25.8 118.6,9.4 "/>
<polyline class="st2" points="52.4,38.1 69.4,56.9 99.8,56.9 81,38.6 "/>
<polyline class="st2" points="118.6,38.1 99.8,56.9 147.2,56.9 147.2,38.1 "/>
<polyline class="st3" points="99.8,25.8 99.8,56.9 118.6,38.1 118.6,9.4 "/>
<polyline class="st3" points="99.8,56.9 81,75.6 52.4,75.6 69.4,56.9 "/>
<polyline class="st3" points="99.8,56.9 147.2,56.9 147.2,75.6 118.6,75.6 "/>
<polyline class="st2" points="99.8,56.9 99.8,86.7 81,104.3 81,75.6 "/>
<polyline class="st3" points="118.6,104.3 99.8,86.7 81,104.3 "/>
</svg>
