<?xml version="1.0" encoding="utf-8"?>
<!-- Generator: Adobe Illustrator 19.1.0, SVG Export Plug-In . SVG Version: 6.00 Build 0)  -->
<svg version="1.1" id="Layer_1" xmlns="http://www.w3.org/2000/svg" xmlns:xlink="http://www.w3.org/1999/xlink" x="0px" y="0px"
	 viewBox="0 0 200 116.2" style="enable-background:new 0 0 200 116.2;" xml:space="preserve">
<style type="text/css">
	.st0{fill:#9F8572;}
	.st1{fill:#C1A58E;}
	.st2{fill:#49494A;}
	.st3{fill:#5C5C5C;}
	.st4{fill:#7A7B7B;}
	.st5{fill:#A4A4A4;}
	.st6{fill:#B11E3B;}
	.st7{fill:none;stroke:#5C5C5C;stroke-width:0.9732;stroke-linecap:round;stroke-miterlimit:10;}
	.st8{fill:#3A3939;}
	.st9{fill:#D3D3D3;}
	.st10{fill:#BBBBBC;}
	.st11{fill:#787878;}
	.st12{fill:#FFFFFF;}
	.st13{fill:#7D7D7D;}
	.st14{fill:#606161;}
	.st15{fill:url(#SVGID_1_);}
	.st16{fill:url(#SVGID_2_);}
	.st17{fill:#45362E;}
	.st18{fill:url(#SVGID_3_);}
	.st19{fill:url(#SVGID_4_);}
	.st20{fill:url(#SVGID_5_);}
	.st21{fill:url(#SVGID_6_);}
	.st22{fill:url(#SVGID_7_);}
	.st23{fill:#262626;}
	.st24{fill:#353535;}
	.st25{fill:#1B1C1C;stroke:#000000;stroke-width:1.7792;stroke-miterlimit:10;}
	.st26{fill:#161616;}
	.st27{fill:#151415;}
	.st28{fill:#1D1D1D;}
	.st29{fill:#D1D1D1;stroke:#121112;stroke-width:1.8708;stroke-miterlimit:10;}
	.st30{fill:#DDDDDC;}
	.st31{fill:#EFEFEF;}
	.st32{fill:#575757;}
	.st33{fill:#8B182E;}
	.st34{fill:#B11E3B;stroke:#8B182E;stroke-width:1.9013;stroke-miterlimit:10;}
	.st35{fill:none;stroke:#CE2D4D;stroke-width:1.1216;stroke-miterlimit:10;}
	.st36{fill:none;stroke:#575757;stroke-width:2.2432;stroke-miterlimit:10;}
	.st37{fill:#B11E3B;stroke:#8B182E;stroke-width:2.2432;stroke-miterlimit:10;}
	.st38{fill:#B11E3B;stroke:#000000;stroke-width:2.1812;stroke-miterlimit:10;}
	.st39{fill:none;stroke:#444445;stroke-width:1.0906;stroke-miterlimit:10;}
	.st40{fill:#444445;}
	.st41{fill:#B11E3B;stroke:#282827;stroke-width:2.2432;stroke-miterlimit:10;}
	.st42{fill:#B11E3B;stroke:#282827;stroke-width:2.2625;stroke-miterlimit:10;}
	.st43{fill:none;stroke:#575757;stroke-width:2.2625;stroke-miterlimit:10;}
	.st44{fill:#494848;}
	.st45{fill:#6B6B6B;}
	.st46{fill:#CECECD;}
	.st47{fill:none;stroke:#DDDDDC;stroke-width:2.5284;stroke-miterlimit:10;}
	.st48{fill:#B11E3B;stroke:#8B182E;stroke-width:1.9326;stroke-miterlimit:10;}
</style>
<g>
	<line class="st35" x1="116.3" y1="13.1" x2="141" y2="13.1"/>
	<line class="st36" x1="141" y1="14.2" x2="157.5" y2="14.2"/>
	<g>
		<rect x="116.3" y="-0.6" class="st6" width="24.7" height="117.3"/>
		<line class="st37" x1="116.3" y1="14.8" x2="141" y2="14.8"/>
		<line class="st37" x1="116.3" y1="22.3" x2="141" y2="22.3"/>
		<line class="st35" x1="116.3" y1="20.6" x2="141" y2="20.6"/>
		<line class="st35" x1="116.3" y1="13.1" x2="141" y2="13.1"/>
		<line class="st37" x1="116.3" y1="103.8" x2="141" y2="103.8"/>
		<line class="st35" x1="116.3" y1="102.3" x2="141" y2="102.3"/>
		<rect x="91.5" y="5.8" class="st28" width="24.7" height="110.9"/>
		<line class="st38" x1="91.5" y1="20.5" x2="116.3" y2="20.5"/>
		<line class="st39" x1="91.5" y1="18.7" x2="116.3" y2="18.7"/>
		<line class="st38" x1="91.5" y1="27.6" x2="116.3" y2="27.6"/>
		<line class="st39" x1="91.5" y1="25.8" x2="116.3" y2="25.8"/>
		<line class="st38" x1="91.5" y1="107" x2="116.3" y2="107"/>
		<line class="st39" x1="91.5" y1="105.3" x2="116.3" y2="105.3"/>
		<rect x="141" y="5.8" class="st40" width="16.5" height="110.9"/>
		<line class="st41" x1="141" y1="16.1" x2="157.5" y2="16.1"/>
		<line class="st41" x1="141" y1="23.2" x2="157.5" y2="23.2"/>
		<line class="st36" x1="141" y1="21.4" x2="157.5" y2="21.4"/>
		<line class="st41" x1="141" y1="109.4" x2="157.5" y2="109.4"/>
		<line class="st36" x1="141" y1="107.5" x2="157.5" y2="107.5"/>
		<g>
			
				<rect x="57.2" y="21.1" transform="matrix(-0.9471 -0.3208 0.3208 -0.9471 108.4979 155.003)" class="st40" width="19.6" height="94.9"/>
			<line class="st42" x1="70.1" y1="28.9" x2="88.7" y2="35.2"/>
			<line class="st43" x1="70.6" y1="27.3" x2="89.2" y2="33.6"/>
			<line class="st42" x1="68.1" y1="34.6" x2="86.8" y2="40.9"/>
			<line class="st43" x1="68.7" y1="33.1" x2="87.3" y2="39.4"/>
			<line class="st42" x1="44.5" y1="104.5" x2="63.1" y2="110.8"/>
			<line class="st43" x1="45" y1="102.9" x2="63.6" y2="109.3"/>
		</g>
	</g>
</g>
</svg>
