<?xml version="1.0" encoding="utf-8"?>
<!-- Generator: Adobe Illustrator 19.2.0, SVG Export Plug-In . SVG Version: 6.00 Build 0)  -->
<svg version="1.1" id="Layer_1" xmlns="http://www.w3.org/2000/svg" xmlns:xlink="http://www.w3.org/1999/xlink" x="0px" y="0px"
	 viewBox="0 0 200 121.9" style="enable-background:new 0 0 200 121.9;" xml:space="preserve">
<style type="text/css">
	.st0{fill:#BCBCBC;}
	.st1{fill:#E5E5E5;}
	.st2{fill:#C6C6C6;}
	.st3{fill:#B11E3B;}
</style>
<g>
	<g>
		<polygon class="st0" points="38.5,118.6 154.2,118.6 156.4,10 36.4,7.2 		"/>
		<polygon class="st1" points="38.1,118.6 149.7,118.6 151,10.4 34.7,10.4 		"/>
		<polygon class="st2" points="38.5,118.6 38.2,5.1 64.6,6.1 		"/>
		<polygon class="st1" points="157.8,118.6 38.5,118.6 41.7,3.6 161,3.6 		"/>
		<g>
			<path class="st3" d="M61.7,40.2l-1.8,3.5c-1.8-1.1-4.1-1.8-5.5-1.8c-1.2,0-2,0.4-2,1.3c-0.1,3.1,9.2,1.3,9,7.7
				c-0.2,3.5-3.4,5.4-7.3,5.4c-3,0-5.9-1.1-7.9-2.8l1.9-3.5c1.7,1.6,4.4,2.6,6.2,2.6c1.4,0,2.3-0.5,2.3-1.6c0.1-3.2-9.2-1.3-9-7.5
				c0.1-3.3,3.1-5.3,7.3-5.4C57.4,38.2,59.9,39.1,61.7,40.2z"/>
			<path class="st3" d="M72.3,42l-0.6,14h-4.4l0.6-14h-5.3l0.2-3.6h15L77.5,42H72.3z"/>
			<path class="st3" d="M81,52.9l-1.5,3.3h-4.6l8.4-17.6H88l6.5,17.6h-4.7l-1.1-3.3H81z M81.4,34.6c0.1-1.2,0.9-2,2-2
				c1.2,0,1.9,0.8,1.9,2c-0.1,1.2-0.9,1.9-2,1.9C82.2,36.5,81.4,35.8,81.4,34.6z M85.3,42.9l-2.8,6.5h5.1L85.3,42.9z M86.3,34.6
				c0.1-1.2,0.9-2,2-2c1.2,0,1.9,0.8,1.9,2c-0.1,1.2-0.9,1.9-2,1.9C87,36.5,86.3,35.8,86.3,34.6z"/>
			<path class="st3" d="M108.3,52.3l-0.2,3.8H96.2l0.8-17.6h4.4l-0.6,13.9L108.3,52.3z"/>
			<path class="st3" d="M125.7,56l0.5-11.5l-4.6,9.7h-3l-3.8-9.7L114.3,56h-4l0.8-17.7h4.9l4.2,10.6l5.3-10.6h4.9L129.5,56L125.7,56
				z"/>
			<path class="st3" d="M46.3,78l0.8-17.6h4.4L50.7,78H46.3z"/>
			<path class="st3" d="M66.6,78L59,67.1L58.4,78h-4.2l0.8-17.7H59l7.6,10.9l0.5-10.9h4.1l-0.7,17.6L66.6,78z"/>
			<path class="st3" d="M79.1,63.7l-0.2,4.1h7.9l-0.2,3.5h-7.9l-0.2,6.5h-4.4l0.8-17.6h13l-0.2,3.5H79.1z"/>
			<path class="st3" d="M107.4,69c-0.2,5.2-4.5,9.1-9.9,9.1c-5.4,0-9.3-3.9-9.1-9.1c0.2-5.2,4.5-9,9.9-9S107.6,64,107.4,69z
				 M92.9,69.1c-0.1,3,2,5.3,4.7,5.3s5-2.3,5.1-5.3c0.1-3-1.9-5.3-4.6-5.2C95.5,63.8,93,66.1,92.9,69.1z"/>
		</g>
		<polygon class="st2" points="153.7,30.2 47.2,30.2 47.7,10.1 154.2,10.1 		"/>
		<g>
			<g>
				<polygon class="st2" points="152.6,39.5 135.1,39.5 135.3,38.2 152.6,38.2 				"/>
				<polygon class="st2" points="152.1,55.9 134.8,55.9 134.8,54.7 152.1,54.7 				"/>
				<polygon class="st2" points="152.2,50.4 134.9,50.4 134.9,49.2 152.3,49.2 				"/>
				<polygon class="st2" points="152.3,47.7 135,47.7 135,46.4 152.3,46.4 				"/>
				<polygon class="st2" points="152.5,45 135,45 135.1,43.7 152.5,43.7 				"/>
				<polygon class="st2" points="152.5,42.2 135.1,42.2 135.1,41 152.5,41 				"/>
				<polygon class="st2" points="152.2,53.2 134.8,53.2 134.9,51.9 152.2,51.9 				"/>
			</g>
			<g>
				<polygon class="st2" points="151.2,99.1 133.8,99.1 133.9,97.8 151.2,97.8 				"/>
				<polygon class="st2" points="151.3,93.5 134,93.5 134,92.2 151.3,92.2 				"/>
				<polygon class="st2" points="151.4,90.6 134,90.6 134.1,89.4 151.4,89.4 				"/>
				<polygon class="st2" points="151.4,87.9 134.1,87.9 134.1,86.6 151.5,86.6 				"/>
				<polygon class="st2" points="151.5,85.1 134.2,85.1 134.2,83.8 151.5,83.8 				"/>
				<polygon class="st2" points="151.2,96.3 133.9,96.3 133.9,95.1 151.3,95.1 				"/>
				<polygon class="st2" points="151.1,101.9 133.8,101.9 133.8,100.7 151.1,100.7 				"/>
				<polygon class="st2" points="150.9,113.1 133.5,113.1 133.6,112 150.9,112 				"/>
				<polygon class="st2" points="150.9,110.4 133.6,110.4 133.6,109.1 151,109.1 				"/>
				<polygon class="st2" points="151,107.5 133.7,107.5 133.7,106.3 151,106.3 				"/>
				<polygon class="st2" points="151.1,104.7 133.7,104.7 133.8,103.5 151.1,103.5 				"/>
				<polygon class="st2" points="150.8,116 133.5,116 133.5,114.7 150.8,114.7 				"/>
			</g>
			<g>
				<polygon class="st2" points="129.1,99.1 111.7,99.1 111.8,97.8 129.1,97.8 				"/>
				<polygon class="st2" points="129.2,93.5 111.9,93.5 111.9,92.2 129.2,92.2 				"/>
				<polygon class="st2" points="129.3,90.6 111.9,90.6 112,89.4 129.3,89.4 				"/>
				<polygon class="st2" points="129.3,87.9 112,87.9 112,86.6 129.3,86.6 				"/>
				<polygon class="st2" points="129.5,85.1 112,85.1 112.1,83.8 129.5,83.8 				"/>
				<polygon class="st2" points="129.1,96.3 111.8,96.3 111.8,95.1 129.2,95.1 				"/>
				<polygon class="st2" points="129,101.9 111.7,101.9 111.7,100.7 129,100.7 				"/>
				<polygon class="st2" points="128.8,113.1 111.4,113.1 111.5,112 128.8,112 				"/>
				<polygon class="st2" points="128.8,110.4 111.5,110.4 111.5,109.1 128.9,109.1 				"/>
				<polygon class="st2" points="128.9,107.5 111.6,107.5 111.6,106.3 128.9,106.3 				"/>
				<polygon class="st2" points="129,104.7 111.6,104.7 111.6,103.5 129,103.5 				"/>
				<polygon class="st2" points="128.7,116 111.4,116 111.4,114.7 128.7,114.7 				"/>
			</g>
			<g>
				<polygon class="st2" points="63,99.1 45.6,99.1 45.7,97.8 63,97.8 				"/>
				<polygon class="st2" points="63.1,93.5 45.8,93.5 45.8,92.2 63.1,92.2 				"/>
				<polygon class="st2" points="63.1,90.6 45.8,90.6 45.8,89.4 63.2,89.4 				"/>
				<polygon class="st2" points="63.2,87.9 45.9,87.9 45.9,86.6 63.2,86.6 				"/>
				<polygon class="st2" points="63.3,85.1 45.9,85.1 46,83.8 63.3,83.8 				"/>
				<polygon class="st2" points="63,96.3 45.7,96.3 45.7,95.1 63,95.1 				"/>
				<polygon class="st2" points="62.9,101.9 45.6,101.9 45.6,100.7 62.9,100.7 				"/>
				<polygon class="st2" points="62.7,113.1 45.3,113.1 45.3,112 62.7,112 				"/>
				<polygon class="st2" points="62.7,110.4 45.4,110.4 45.4,109.1 62.7,109.1 				"/>
				<polygon class="st2" points="62.8,107.5 45.4,107.5 45.5,106.3 62.8,106.3 				"/>
				<polygon class="st2" points="62.8,104.7 45.5,104.7 45.5,103.5 62.9,103.5 				"/>
				<polygon class="st2" points="62.6,116 45.3,116 45.3,114.7 62.6,114.7 				"/>
			</g>
			<g>
				<polygon class="st2" points="107.1,99.1 89.7,99.1 89.8,97.8 107.1,97.8 				"/>
				<polygon class="st2" points="107.2,93.5 89.9,93.5 89.9,92.2 107.2,92.2 				"/>
				<polygon class="st2" points="107.3,90.6 89.9,90.6 89.9,89.4 107.3,89.4 				"/>
				<polygon class="st2" points="107.3,87.9 90,87.9 90,86.6 107.3,86.6 				"/>
				<polygon class="st2" points="107.4,85.1 90,85.1 90.1,83.8 107.4,83.8 				"/>
				<polygon class="st2" points="107.1,96.3 89.8,96.3 89.8,95.1 107.2,95.1 				"/>
				<polygon class="st2" points="107,101.9 89.7,101.9 89.7,100.7 107,100.7 				"/>
				<polygon class="st2" points="106.8,113.1 89.4,113.1 89.5,112 106.8,112 				"/>
				<polygon class="st2" points="106.8,110.4 89.5,110.4 89.5,109.1 106.9,109.1 				"/>
				<polygon class="st2" points="106.9,107.5 89.6,107.5 89.6,106.3 106.9,106.3 				"/>
				<polygon class="st2" points="106.9,104.7 89.6,104.7 89.6,103.5 107,103.5 				"/>
				<polygon class="st2" points="106.7,116 89.4,116 89.4,114.7 106.7,114.7 				"/>
			</g>
			<polygon class="st2" points="84.6,116 67.3,116 68,83.8 85.3,83.8 			"/>
			<polygon class="st2" points="151.6,78.1 112.3,78.1 112.7,60.5 152,60.5 			"/>
		</g>
	</g>
</g>
</svg>
