<?xml version="1.0" encoding="utf-8"?>
<!-- Generator: Adobe Illustrator 19.1.0, SVG Export Plug-In . SVG Version: 6.00 Build 0)  -->
<svg version="1.1" id="Layer_1" xmlns="http://www.w3.org/2000/svg" xmlns:xlink="http://www.w3.org/1999/xlink" x="0px" y="0px"
	 viewBox="0 0 200 124.6" style="enable-background:new 0 0 200 124.6;" xml:space="preserve">
<style type="text/css">
	.st0{fill:#9F8572;}
	.st1{fill:#C1A58E;}
	.st2{fill:#49494A;}
	.st3{fill:#5C5C5C;}
	.st4{fill:#7A7B7B;}
	.st5{fill:#A4A4A4;}
	.st6{fill:#B11E3B;}
	.st7{fill:none;stroke:#5C5C5C;stroke-width:0.9732;stroke-linecap:round;stroke-miterlimit:10;}
	.st8{fill:#3A3939;}
	.st9{fill:#D3D3D3;}
	.st10{fill:#BBBBBC;}
	.st11{fill:#787878;}
	.st12{fill:#FFFFFF;}
	.st13{fill:#7D7D7D;}
	.st14{fill:#606161;}
	.st15{fill:url(#SVGID_1_);}
	.st16{fill:url(#SVGID_2_);}
	.st17{fill:#45362E;}
	.st18{fill:url(#SVGID_3_);}
	.st19{fill:url(#SVGID_4_);}
	.st20{fill:url(#SVGID_5_);}
	.st21{fill:url(#SVGID_6_);}
	.st22{fill:url(#SVGID_7_);}
	.st23{fill:#262626;}
	.st24{fill:#353535;}
	.st25{fill:#1B1C1C;stroke:#000000;stroke-width:1.7792;stroke-miterlimit:10;}
	.st26{fill:#161616;}
	.st27{fill:#151415;}
	.st28{fill:#1D1D1D;}
	.st29{fill:#D1D1D1;stroke:#121112;stroke-width:1.8708;stroke-miterlimit:10;}
	.st30{fill:#DDDDDC;}
	.st31{fill:#EFEFEF;}
	.st32{fill:#575757;}
	.st33{fill:#8B182E;}
	.st34{fill:#B11E3B;stroke:#8B182E;stroke-width:1.9013;stroke-miterlimit:10;}
	.st35{fill:none;stroke:#CE2D4D;stroke-width:1.1216;stroke-miterlimit:10;}
	.st36{fill:none;stroke:#575757;stroke-width:2.2432;stroke-miterlimit:10;}
	.st37{fill:#B11E3B;stroke:#8B182E;stroke-width:2.2432;stroke-miterlimit:10;}
	.st38{fill:#B11E3B;stroke:#000000;stroke-width:2.1812;stroke-miterlimit:10;}
	.st39{fill:none;stroke:#444445;stroke-width:1.0906;stroke-miterlimit:10;}
	.st40{fill:#444445;}
	.st41{fill:#B11E3B;stroke:#282827;stroke-width:2.2432;stroke-miterlimit:10;}
	.st42{fill:#B11E3B;stroke:#282827;stroke-width:2.2625;stroke-miterlimit:10;}
	.st43{fill:none;stroke:#575757;stroke-width:2.2625;stroke-miterlimit:10;}
	.st44{fill:#494848;}
	.st45{fill:#6B6B6B;}
	.st46{fill:#CECECD;}
	.st47{fill:none;stroke:#DDDDDC;stroke-width:2.5284;stroke-miterlimit:10;}
	.st48{fill:#B11E3B;stroke:#8B182E;stroke-width:1.9326;stroke-miterlimit:10;}
</style>
<g>
	<path class="st30" d="M48.5,1.6c0.2,0,0.4,0,0.6,0c2.2,0,4.3,0,6.5,0c0.5,0,0.7,0.2,0.9,0.5c3.8,6.8,7.6,13.5,11.3,20.3
		c0.1,0.2,0.2,0.3,0.4,0.6c2-3.7,4-7.2,6-10.8c2-3.6,4-7.1,6-10.7c2.6,0,5.1,0,7.7,0c0.1,0.4,0.1,35.6,0,36.3
		c-0.4,0.1-6.4,0.1-7.5,0.1c-0.2-0.2-0.1-0.5-0.1-0.7c0-5.6,0-11.1,0-16.7c0-0.8,0-1.6,0-2.4c0-0.2,0-0.4,0-0.5c-0.1,0-0.1,0-0.1,0
		c0,0,0,0,0,0c0,0-0.1,0-0.1,0.1c0,0-0.1,0.1-0.1,0.1c-3.9,6.7-7.8,13.3-11.7,20c0,0,0,0-0.1,0.1c-0.2-0.1-0.3-0.3-0.4-0.5
		c-1.7-2.9-3.4-5.9-5.1-8.8c-2-3.5-4-6.9-6-10.4c-0.1-0.2-0.2-0.4-0.3-0.5c-0.1,0-0.1,0-0.1,0c0,0,0,0,0,0c0,0,0,0.1,0,0.1
		c0,0,0,0,0,0.1c0,0.1,0,0.1,0,0.2c0,6.6,0,13.2,0,19.8c0,0,0,0.1,0,0.1c0,0,0,0,0,0.1c0,0,0,0,0,0.1c-2.5,0-5,0-7.5,0
		C48.5,37.6,48.4,2.5,48.5,1.6z"/>
	<path class="st30" d="M105.9,110.2c0-7.6,0-15.1,0-22.7c0.4-0.1,7-0.2,7.6,0c0,12.1,0,24.2,0,36.3c-0.2,0-0.4,0-0.6,0
		c-2.2,0-4.3,0-6.5,0c-0.4,0-0.7-0.1-0.9-0.5c-2.4-3.3-4.8-6.7-7.2-10c-3.1-4.2-6.1-8.5-9.2-12.7c-0.1-0.2-0.2-0.3-0.4-0.5
		c0,0.2-0.1,0.2-0.1,0.3c0,0.2,0,0.3,0,0.5c0,7.4,0,14.8,0,22.1c0,0.2,0,0.4,0,0.7c-0.4,0.1-6.8,0.1-7.6,0.1
		c-0.1-0.4-0.2-35.3,0-36.3c0.1,0,0.3,0,0.4,0c2.3,0,4.6,0,6.9,0c0.3,0,0.5,0.2,0.7,0.4c2.1,2.9,4.3,5.8,6.4,8.6
		c3.3,4.4,6.6,8.9,10,13.3c0.1,0.2,0.2,0.3,0.4,0.5C105.8,110.2,105.8,110.2,105.9,110.2z"/>
	<path class="st30" d="M48.5,81.5c0-12.1,0-24.2,0-36.3c0.2,0,0.3,0,0.5,0c4.9,0,9.8-0.1,14.7,0.1c4.8,0.2,9.1,1.8,12.6,5.1
		c2.4,2.3,3.9,5.1,4.6,8.2c0.9,3.8,0.8,7.5-0.5,11.2c-1.7,4.9-5,8.3-9.8,10.2c-1.8,0.8-3.8,1.2-5.7,1.4c-1.4,0.1-2.8,0.2-4.2,0.2
		c-3.9,0-7.7,0-11.6,0C49,81.5,48.8,81.5,48.5,81.5z M56.2,51.9c0,7.6,0,15.2,0,22.9c0.2,0,0.4,0,0.6,0c1.9,0,3.7,0,5.6,0
		c1,0,1.9-0.1,2.9-0.3c3.5-0.8,6.1-2.9,7.5-6.2c1.4-3.3,1.3-6.6,0-9.9c-1-2.5-2.7-4.3-5.1-5.4c-1.5-0.7-3.1-1-4.8-1.1
		c-2,0-4.1,0-6.1,0C56.5,51.8,56.4,51.9,56.2,51.9z"/>
	<path class="st30" d="M92.7,19.8c0-10.2,8.1-19,19-19c10.9,0,19,8.8,19,19c0,10.5-8.6,19-19,19C101.2,38.8,92.7,30.3,92.7,19.8z
		 M112.3,7.8c-2.8,0-4.9,0.6-6.7,2c-3.9,2.9-5.5,6.8-5,11.5c0.3,2.9,1.5,5.4,3.6,7.4c2.5,2.4,5.5,3.5,8.9,3.1c2.3-0.3,4.3-1.2,6-2.7
		c4.5-4,5.4-10.9,2.1-15.9C118.9,9.7,115.8,7.9,112.3,7.8z"/>
	<path class="st30" d="M73.8,102c0,2.3,0,4.5,0,6.7c-0.6,0-1.2,0-1.8,0c-0.6,0-1.1,0-1.7,0c-0.6,0-1.2,0-1.8,0s-1.2,0-1.8,0
		s-1.2,0-1.8,0c-0.6,0-1.1,0-1.7,0c-0.6,0-1.2,0-1.8,0s-1.2,0-1.8,0c-0.6,0-1.1,0-1.7,0c-0.6,0-1.2,0-1.7,0c-0.1,0.4-0.2,7.6,0,8.3
		c0.2,0,0.5,0,0.7,0c5.5,0,10.9,0,16.4,0c0.2,0,0.5,0,0.7,0c0.1,0.4,0.2,6,0.1,6.7c-8.5,0-17,0-25.5,0c-0.1-0.4-0.2-35.4-0.1-36.3
		c0.4-0.1,24.9-0.1,25.6,0c0,2.2,0,4.4,0,6.7c-1.2,0-2.4,0-3.6,0c-1.2,0-2.4,0-3.6,0c-1.2,0-2.4,0-3.5,0c-1.2,0-2.4,0-3.6,0
		c-1.2,0-2.4,0-3.6,0c-0.1,0.4-0.2,7-0.1,7.8c0.2,0,0.5,0,0.7,0c5.4,0,10.8,0,16.1,0C73.3,102,73.5,102,73.8,102z"/>
	<path class="st30" d="M112.1,45.2c2.6,0,5.2,0,7.8,0c0,0.2,0,0.3,0,0.5c0,6.5,0,13,0,19.5c0,3.1-0.7,6.1-2.2,8.9
		c-2.1,3.8-5.3,6.2-9.6,7.3c-1.8,0.5-3.7,0.6-5.6,0.5c-2.9-0.1-5.7-0.8-8.2-2.3c-3.1-1.9-5.1-4.7-6.3-8.1c-0.7-2.1-1-4.2-1-6.3
		c0-6.4,0-12.8,0-19.3c0-0.2,0-0.4,0-0.6c2.6,0,5.1,0,7.7,0c0,0.2,0,0.5,0,0.7c0,6.3,0,12.5,0,18.8c0,2.3,0.6,4.5,1.8,6.4
		c1.1,1.8,2.6,3.1,4.6,3.7c3.1,0.9,6.3,0,8.4-2.6c1.2-1.5,1.9-3.2,2.2-5.1c0.1-0.9,0.2-1.8,0.2-2.7c0-6.1,0-12.3,0-18.4
		C112.1,45.7,112.1,45.5,112.1,45.2z"/>
	<path class="st30" d="M134.3,45.2c0,9.8,0,19.7,0,29.5c1.2,0,2.3,0,3.5,0c1.1,0,2.3,0,3.4,0s2.3,0,3.4,0s2.3,0,3.4,0
		c1.1,0,2.3,0,3.5,0c0,2.3,0,4.5,0,6.7c-0.4,0.1-24.4,0.1-24.9,0c0-12.1,0-24.1,0-36.2C127,45.1,133.5,45.1,134.3,45.2z"/>
</g>
</svg>
