<?xml version="1.0" encoding="utf-8"?>
<!-- Generator: Adobe Illustrator 19.2.0, SVG Export Plug-In . SVG Version: 6.00 Build 0)  -->
<svg version="1.1" id="Layer_1" xmlns="http://www.w3.org/2000/svg" xmlns:xlink="http://www.w3.org/1999/xlink" x="0px" y="0px"
	 viewBox="0 0 200 121.9" style="enable-background:new 0 0 200 121.9;" xml:space="preserve">
<style type="text/css">
	.st0{fill:#9F8572;}
	.st1{fill:#C1A58E;}
	.st2{fill:#49494A;}
	.st3{fill:#5C5C5C;}
	.st4{fill:#7A7B7B;}
	.st5{fill:#A4A4A4;}
	.st6{fill:#B11E3B;}
	.st7{fill:none;stroke:#5C5C5C;stroke-width:0.9732;stroke-linecap:round;stroke-miterlimit:10;}
	.st8{fill:none;stroke:#5C5C5C;stroke-width:4;stroke-miterlimit:10;}
	.st9{fill:#6B6B6B;}
	.st10{fill:#444444;}
	.st11{fill:#E8E8E8;}
	.st12{fill:#FFFFFF;}
	.st13{fill:#991434;}
</style>
<g>
	<g>
		<rect x="27.5" y="4.2" class="st5" width="140.8" height="113.6"/>
	</g>
	<g>
		<rect x="28.7" y="98.9" class="st9" width="44.5" height="18.9"/>
	</g>
	<g>
		<rect x="80.8" y="98.9" class="st9" width="16.1" height="18.9"/>
	</g>
	<g>
		<rect x="82.6" y="3.8" class="st9" width="13.1" height="15.6"/>
	</g>
	<g>
		<rect x="68.1" y="19.3" class="st9" width="14.9" height="55.4"/>
	</g>
	<g>
		<g>
			<polygon class="st10" points="170.2,119.7 27.5,119.7 27.5,98.9 31.5,98.9 31.5,115.7 166.2,115.7 166.2,47.1 170.2,47.1 			"/>
		</g>
	</g>
	<g>
		<g>
			<polygon class="st10" points="69.9,74.7 65.8,74.7 65.8,70.7 65.9,70.7 65.9,15.5 79,15.5 79,4.2 83,4.2 83,19.5 69.9,19.5 			
				"/>
		</g>
	</g>
	<g>
		<g>
			<g>
				<rect x="66" y="4.2" class="st10" width="4" height="15.3"/>
			</g>
		</g>
	</g>
	<g>
		<rect x="73.2" y="98.9" class="st10" width="7.7" height="18.9"/>
	</g>
	<g>
		<rect x="166.2" y="8" class="st11" width="4" height="39.1"/>
	</g>
	<g>
		<polygon class="st4" points="146.8,61.5 110.7,61.5 110.7,115.7 148.6,115.7 153,66.2 		"/>
	</g>
	<g>
		<rect x="116.2" y="66.2" class="st6" width="36.8" height="49.6"/>
	</g>
	<g>
		<rect x="116.2" y="104.7" class="st12" width="36.8" height="11"/>
	</g>
	<g>
		<rect x="116.2" y="99.2" class="st13" width="36.8" height="8.4"/>
	</g>
	<g>
		<rect x="29.5" y="4.3" class="st9" width="19.5" height="19.5"/>
	</g>
	<g>
		
			<rect x="101.6" y="13" transform="matrix(0.7071 -0.7071 0.7071 0.7071 18.0009 84.2733)" class="st4" width="18.3" height="14.8"/>
	</g>
	<g>
		
			<rect x="104.5" y="16" transform="matrix(0.7071 -0.7071 0.7071 0.7071 16.7745 87.2341)" class="st6" width="18.3" height="14.8"/>
	</g>
	<g>
		
			<rect x="110.1" y="19.4" transform="matrix(0.7071 -0.7071 0.7071 0.7071 16.1856 88.6558)" class="st13" width="10" height="10.8"/>
	</g>
	<g>
		<polyline class="st4" points="126.5,15.5 121.7,10.7 121.7,4.2 131.8,4.2 		"/>
	</g>
	<g>
		<polyline class="st4" points="55.5,20.6 51.2,16.3 51.2,6.3 58.4,6.3 		"/>
	</g>
	<g>
		<path class="st9" d="M54.3,5.3h8.3v12.4c0,2.3-1.9,4.1-4.1,4.1h0c-2.3,0-4.1-1.9-4.1-4.1V5.3z"/>
	</g>
	<g>
		<rect x="126.5" y="5.3" class="st9" width="32.5" height="10.2"/>
	</g>
	<g>
		<polyline class="st4" points="47.7,54.5 41.6,48.5 29.5,48.5 29.5,59.6 		"/>
	</g>
	<g>
		<rect x="31.5" y="54.5" class="st9" width="16.2" height="16.2"/>
	</g>
	<g>
		<g>
			<polygon class="st10" points="47.7,74.7 27.5,74.7 27.5,2.2 170.2,2.2 170.2,8 166.2,8 166.2,6.2 31.5,6.2 31.5,70.7 47.7,70.7 
							"/>
		</g>
	</g>
	<g>
		<rect x="69" y="3.2" class="st10" width="12.6" height="15.3"/>
	</g>
</g>
</svg>
