<svg id="Layer_1" data-name="Layer 1" xmlns="http://www.w3.org/2000/svg" viewBox="0 0 130.01 80"><defs><style>.cls-1{fill:#c7c6c5;}.cls-2{fill:#e5e5e5;}</style></defs><title>Frivillig-arbete-ikon</title><path class="cls-1" d="M66.83,26.77a2.48,2.48,0,0,1,2.48,2.48L70,38.77a.87.87,0,0,0,.87.87h0a.87.87,0,0,0,.87-.87V24.17c0-1.37.11-2.48,1.48-2.48a2.48,2.48,0,0,1,2.48,2.48v14.6c0,.48,1.11.87,1.58.87s1.15-.39,1.15-.87V21.69a2.48,2.48,0,1,1,5,0V38.77a.87.87,0,0,0,.87.87h0a.87.87,0,0,0,.87-.87l1.07-14.94a2.48,2.48,0,0,1,5,0L89.63,49.07c.08.6.44,1.83,2.12.67,1.38-1,4.28-4.14,6.1-5.43A2.58,2.58,0,0,1,101.38,48L91.75,60.64s-3,3.11-4.82,3.75V80H71.57V77.16H68.92v-14s-2.8-3-3.06-9.87V52L64.78,29.25C64.78,27.88,65.46,26.77,66.83,26.77Z"/><path class="cls-2" d="M74.26,10.85a3.2,3.2,0,0,0-3.2,3.2l-.83,12.28a1.12,1.12,0,0,1-1.12,1.12h0A1.12,1.12,0,0,1,68,26.33V7.49a3.2,3.2,0,0,0-6.39,0V26.33a1.12,1.12,0,0,1-2.24,0V4.3A3.2,3.2,0,0,0,53,4.3v22a1.12,1.12,0,0,1-1.12,1.12h0a1.12,1.12,0,0,1-1.12-1.12L49.35,7.05a3.2,3.2,0,0,0-6.39,0l1.89,32.57c-.1.78-.57,2.37-2.73.86-1.78-1.24-5.53-5.35-7.88-7a3.33,3.33,0,0,0-4.56,4.74L42.12,54.54s3.87,4,6.22,4.84V80H71.57V57.86s3.62-3.9,3.95-12.73V43.36L76.91,14C76.91,12.28,76,10.85,74.26,10.85Z"/></svg>