<?xml version="1.0" encoding="utf-8"?>
<!-- Generator: Adobe Illustrator 19.1.0, SVG Export Plug-In . SVG Version: 6.00 Build 0)  -->
<svg version="1.1" id="Layer_1" xmlns="http://www.w3.org/2000/svg" xmlns:xlink="http://www.w3.org/1999/xlink" x="0px" y="0px"
	 viewBox="0 0 200 135.3" style="enable-background:new 0 0 200 135.3;" xml:space="preserve">
<style type="text/css">
	.st0{fill:#9F8572;}
	.st1{fill:#C1A58E;}
	.st2{fill:#49494A;}
	.st3{fill:#5C5C5C;}
	.st4{fill:#7A7B7B;}
	.st5{fill:#A4A4A4;}
	.st6{fill:#B11E3B;}
	.st7{fill:none;stroke:#5C5C5C;stroke-width:0.9732;stroke-linecap:round;stroke-miterlimit:10;}
	.st8{fill:#3A3939;}
	.st9{fill:#D3D3D3;}
	.st10{fill:#BBBBBC;}
	.st11{fill:#787878;}
	.st12{fill:#FFFFFF;}
	.st13{fill:#7D7D7D;}
	.st14{fill:#606161;}
	.st15{fill:url(#SVGID_1_);}
	.st16{fill:url(#SVGID_2_);}
	.st17{fill:#45362E;}
	.st18{fill:url(#SVGID_3_);}
	.st19{fill:url(#SVGID_4_);}
	.st20{fill:url(#SVGID_5_);}
	.st21{fill:url(#SVGID_6_);}
	.st22{fill:url(#SVGID_7_);}
	.st23{fill:#262626;}
	.st24{fill:#353535;}
	.st25{fill:#1B1C1C;stroke:#000000;stroke-width:1.7792;stroke-miterlimit:10;}
	.st26{fill:#161616;}
	.st27{fill:#151415;}
	.st28{fill:#1D1D1D;}
	.st29{fill:#D1D1D1;stroke:#121112;stroke-width:1.8708;stroke-miterlimit:10;}
	.st30{fill:#DDDDDC;}
	.st31{fill:#EFEFEF;}
	.st32{fill:#575757;}
	.st33{fill:#8B182E;}
	.st34{fill:#B11E3B;stroke:#8B182E;stroke-width:1.9013;stroke-miterlimit:10;}
	.st35{fill:none;stroke:#CE2D4D;stroke-width:1.1216;stroke-miterlimit:10;}
	.st36{fill:none;stroke:#575757;stroke-width:2.2432;stroke-miterlimit:10;}
	.st37{fill:#B11E3B;stroke:#8B182E;stroke-width:2.2432;stroke-miterlimit:10;}
	.st38{fill:#B11E3B;stroke:#000000;stroke-width:2.1812;stroke-miterlimit:10;}
	.st39{fill:none;stroke:#444445;stroke-width:1.0906;stroke-miterlimit:10;}
	.st40{fill:#444445;}
	.st41{fill:#B11E3B;stroke:#282827;stroke-width:2.2432;stroke-miterlimit:10;}
	.st42{fill:#B11E3B;stroke:#282827;stroke-width:2.2625;stroke-miterlimit:10;}
	.st43{fill:none;stroke:#575757;stroke-width:2.2625;stroke-miterlimit:10;}
	.st44{fill:#494848;}
	.st45{fill:#6B6B6B;}
	.st46{fill:#CECECD;}
	.st47{fill:none;stroke:#DDDDDC;stroke-width:2.5284;stroke-miterlimit:10;}
	.st48{fill:#B11E3B;stroke:#8B182E;stroke-width:1.9326;stroke-miterlimit:10;}
</style>
<g>
	<rect x="25.8" y="11.2" class="st14" width="148.4" height="124.1"/>
	<g>
		<rect x="74.2" y="14.1" class="st12" width="2.8" height="65.6"/>
		<rect x="123" y="14.1" class="st12" width="2.8" height="65.6"/>
	</g>
	<linearGradient id="SVGID_1_" gradientUnits="userSpaceOnUse" x1="13.8411" y1="11.1565" x2="186.1592" y2="11.1565">
		<stop  offset="0.1516" style="stop-color:#1F471B"/>
		<stop  offset="0.7157" style="stop-color:#1F471B"/>
	</linearGradient>
	<path class="st15" d="M181.3,18.4c-4.7-5.3-5.6-5.3-2.1,1.3c-3.8-5.6-5.1-5.9-7.4,0.5c0-6.3-0.9-5.9-3.6-0.6
		c1.5-3.3,1.1-1.6,0.5,1.7c-0.9-3.3-1.8-4.9-4.5-3.9c1.1-2.7,0.4-2.6-1.4-1c0.4,0-0.4,1.7-1.4,4.2c0.6-3.7,0.8-5.4,0-5.3
		c0-0.3-0.9,1.4-2.3,4.7c2-6.3,1.2-6.4-3.7-2.3c3.3-4.3,2.6-4.3-1.7-1.5c2.5-2.6,1.5-2.1-0.2,0.7c1.2-1,0.8-0.3,0.1,1
		c0.4,0.4,0.3,1.4,0.4,2.7c-1.7-1.9-3.2-3.3-2.1-2.1c-3.9-3.3-5.1-4-2.6,1c-5.2-5.7-6.5-5.7-9,1.8c-0.5-7.2-2.2-6.8-7.8-2.8
		c4.9-4.6,5.1-5-0.2-1c4.5-4.4,3.5-4.2-1.8-1.4c3.6-2.4,2.7-1.7,0.4,1.5c0.4-2.7-1-3.4-2.8-3.3c-0.4-0.4-1.2-0.1-1.6,0.8
		c-0.4,0.9-0.6,2.5-0.5,4.8c-3.6-6.7-4.9-6.3-7.4,0.2c-0.4-6.5-1.9-6.9-5.9-3.2c2.5-2.9,2.5-1.7,2.1,2.4c-0.9-3.6-2.2-4.2-3.7-3
		c0.3-0.3,0.4,1.3,0.8,3.9c-2.6-4.4-4-5.4-6.7-1.1c0.4-5.1-0.5-4.9-3.1-0.8c1.3-2.1,0.8-0.5,0.2,2.3c-0.6-3.8-1.2-5.4-3.3-4
		c0.8-1.3,0.1,0.4-0.9,3.5c-0.4-3.1-1-4.8-2.1-5.2c-0.8-0.6-2.1,0.1-3.9,1.6c2.6-2.5,3.2-1.4,4.1,3.4c-1.5-4.6-3.2-5.6-5.5-4.3
		c0.6-0.8,0.7,0.9,1.6,4.3c-1.4-3-1.9-4.4-2.1-3.9c0.5-0.1,1.4,1.6,3,4.5c-3.7-5.2-5.3-6-8-0.1c0.4-6.4-0.2-6.1-2.8-0.5
		c2-3.5,2.1-1.8,2.3,2.1c-1.4-4.6-2.4-6.1-4.9-3.2c1.6-2.3,1.8-0.3,2.4,3.3c-0.8-2.2-1.5-3.7-3.4-3.4c0.3-2.1-0.5-2.3-2-1.5
		c-0.4-0.1-1.5,0.9-3,2.6c1.2-2.9,1.6-4.2,1.2-4.2c-0.1-0.1-1,1.2-2.5,3.6c3.1-3.1,3.7-1.5,4.2,2.9c-0.9-4.3-2.1-5.8-5.6-3.7
		c1.8-3.5,1.1-3.4-1.3-1c1.4-0.7,0.9,1,0.5,3.6c0.2-3.6,0.4-5.2-0.8-3.8c1.9-1.1,2.4,0.9,3.2,4.4c-1-2.4-1.9-4-3.7-4.4
		c-0.1-1.6-1-1.9-2.1-1.5c-1,0.3-2.2,1.3-3.7,2.8c2.5-3.8,2.3-2.1,2.3,2.6c-1.1-4.1-2.1-5.1-4.2-3.3c1-1,1,0.8,1.3,3.9
		c-1-2.6-1.7-4.2-2.9-4.4c-0.8-0.5-2,0.3-3.7,2.5c1.4-5.5,0.6-5.4-2.8-1.3c1.9-2.4,1.3-0.9,0.2,1.9c0.1-2.8-0.1-4.3-2.5-3.5
		c1.6-2.5,0.9-2.7-1.4-1.4c0.5-0.4-0.8,0.6-2.4,2.2c1.1-2.3,1.4-3.5,0.6-3.7c-0.3-0.4-1.6,0.3-3.5,1.5c2.1-1.6,1.7-0.6,1.1,2.4
		c-1.2-3-2.6-4-3.6-3.6c-0.4,0.2-0.4,1.7,0.2,4.8c-3-5.8-3.6-5.5-3.1,0.8c-2.1-6.3-3.1-6.7-5.2-0.5c1.2-5.7,1.4-4.9,1.8,0.7
		c-1.1-5.4-2.1-6-4.5-1.5c1.8-3.9,2.2-2.8,2.4,1.4C32,16,30.7,14.9,28,17.3c1.2-2.2,0.9-0.9,0.9,2.1c-0.8-2.6-1.2-3.6-2.1-2.5
		c0.7-0.6,0.8,0.9,1.2,3.1c-1-2.3-1.8-3.7-2.7-3.9c-0.7-0.4-1.5,0.5-2.5,2.9c0.6-4.4,0.4-2.9,0.3,1c-0.5-3.9-1-5.4-3.1-2
		c1.6-3.4,1.5-1.9,1.3,1.7c0.2-3.5,0.2-5.7-2.4-2.4c2.5-4.3,2.5-3,2.1,1.9c0.4-4.4,0.4-7-4.8-4.9c5.3-6.6,5.3,0.4-2.3-3.7
		c7.6,0.6,7.6-1.1,4.5-7.2c3.1,2.3,3.1,0.2,2.9-2.9c0.2,3.9,0.2,6.1-2.8,2.9C21.9,9,22.2,9,19.7,2.7C23.5,7,24.4,4.9,25.6,0
		c-0.7,4.8-1.2,6.9-3.4,1.7C23,4.3,23.5,6,24,6.9c0.5,0.9,0.8,0.9,0.8-0.3c0.6-0.7,0.9-2.5,1.2-5.4c0.6,2.6,1.2,4.1,0.8,3.8
		c1.8,1.9,2.6,1.8,1.9-1.2c2.9,1.8,4.2,0.6,5.4-2.7c-1.3,3.6-2.5,5.1-5.4,2.9c1.5,3.8,1.3,3.9-0.7,0.6c2.7,2.1,3.6,0.7,4.6-3.1
		c-0.7,4.1-1.3,5.8-4.3,3.1c3.1,4.7,3.7,5,1.4-0.7c4.7,5.2,6.5,4.5,9.9-2.1c-3.6,7.1-5,8-8.2,1.4c3.2,7,4.6,6.4,9-1.1
		c-4,7.7-4.9,8.4-7,0.5c2.6,8.3,4.1,8,10,0.8c-4.8,7.2-5.1,7.5-2.1-0.5c-0.9,2.8-1.3,4.6-1.3,5.6c0,1,0.4,1.2,1.3,0.6
		c1-0.6,2.4-1.9,4.3-4.1c-1.5,2.2-2.4,3.6-3.2,4.1c0.2,1.1,0.6,1.3,0.3,0.3C45,9.8,46.6,9,47.1,5.6c0.3,4,0.2,4.8-2.2,2.5
		c1.9,1.5,3.2,2.3,3.5,1.8c1-0.1,0.9-1.4,0.1-4.1c1.4,1.8,2.5,3,2,2.4c2.2,1.7,2.9,1.6,1.7-1.3c2.4,1.2,2.9-0.3,3.2-3.2
		c0.6,2.9,1,4.4-0.4,1.7c2.5,4.4,3.2,4.6,2.7-0.8c1.3,2.3,2.2,3.2,2.7,2.6c1.3,0.1,2.1-1.3,3.2-3.6c-0.4,2.7-0.5,4.3-1.5,3
		c2,2,3,1.1,4.1-2.7c0,4.4,0.1,5.9-1.9,1.9c1.8,2.4,3.1,3.4,4,2.9c1.4-0.2,2.4-1.9,3.7-5.1c-0.5,3.1-0.8,4.9-1.9,4
		c1,1.1,1-0.3,1.2-3.6c0.3,3.5,0.7,5.2-0.4,3.3c2.7,2.1,3.9,0.6,5.3-3.6c-0.3,2.2-0.5,3.7-0.8,4.1c-0.3,0.5-0.7-0.1-1.5-2.1
		c1.6,2.3,2.8,3.3,3.2,2.2c2.1,0.4,3.2-1.2,4.6-4.3c-0.1,3.1,0,4.7-1.2,2.3c2.4,3,3.5,1.9,5-2.5c-0.2,4.9,0,6.4-0.5,1.3
		c1.1,3,2.1,4.3,3.3,4.2c1.2-0.1,2.6-1.6,4.4-4.3c-0.5,2.8-0.6,4.3-1.7,3.3c2.5,1.8,3.8,1.1,4.4-3.5c0.4,2.5,0.6,3.9,0.3,4.3
		c-0.2,0.4-1-0.3-2.6-2.1c2.2,2.2,3.6,3.2,3.7,2.4c1.6,0.1,1.9-1.7,1.7-5.2c1,2.3,1.8,3.9,0.9,3.1c2.4,2.5,3.2,2.5,2.1-1.1
		c3,2.2,4.1,0.7,5.2-3.1c-0.1,3.9-0.1,5.4-1.2,1.7c1.7,5.6,2.4,5.9,3.3,0c0.6,2.8,1.3,4,1.6,3.6c1.6,0.4,2.9-0.8,4.2-3.8
		C114,7.3,113.8,8.7,112,7c3,2.7,4.4,2.3,4.9-3.1c1,5.8,1,6.6-1.9,1.5c4.2,5.7,5.5,5.6,6.3-2c2,7.5,3.6,7.7,9.3,2.6
		c-1.2,2.6-1.3,3.9-1.1,4c1.2,0.8,2.8,0.4,3.4-2.4c2.1,2.8,3.2,3.2,1.3-0.6c3.4,3.7,4.5,3.9,3.5-1.3c2.2,4.6,2.3,3.8,1-0.9
		c3,4.1,4.9,4.8,8.5,1.2c0,2.2,0.4,3.2,1.2,3.5c0.8,0.3,2-0.2,3.4-1.1c0.3,0.5,0.9,0.5,1-0.3c1.4,0.2,2.4-0.4,2.5-2.2
		c1.3,3.2,2.2,4.2,0.1,1c2.3,2.1,3.8,3.2,4.6,2.8c1-0.3,1.2-2,1-5.3c1.5,2.2,2.9,3.7,2.3,3c3.1,2.4,4.3,2.6,2.9-1.6
		c4.1,3.6,5.7,2.8,7.6-2.6c-0.8,6-0.8,7-0.6,0.8c0.9,6.9,2.1,6.6,5.9,0.8c-3.2,6.4-2.7,6.4,1.5,0.8c-3.6,5.3-3.9,6.1,0.8,1.4
		c-4.4,6.8-3.8,8.2,4.7,9.2c-8.5,1.7-9-5.9-4.4,0.9C176.9,12.5,177.3,13.4,181.3,18.4z"/>
	<linearGradient id="SVGID_2_" gradientUnits="userSpaceOnUse" x1="13.8409" y1="12.3801" x2="186.1591" y2="12.3801">
		<stop  offset="0.3159" style="stop-color:#427136"/>
		<stop  offset="0.6127" style="stop-color:#427136"/>
	</linearGradient>
	<path class="st16" d="M18.7,8.9c4.7,2.5,5.6,2.5,2.1-0.6c3.8,2.6,5.1,2.8,7.4-0.2c0,3,0.9,2.8,3.6,0.3c-1.5,1.6-1.1,0.8-0.5-0.8
		c0.9,1.6,1.8,2.3,4.5,1.8c-1.1,1.3-0.4,1.3,1.4,0.5c-0.4,0,0.4-0.8,1.4-2c-0.6,1.7-0.8,2.6,0,2.5c0,0.1,0.9-0.7,2.3-2.2
		c-2,3-1.2,3,3.7,1.1c-3.3,2-2.6,2,1.7,0.7c-2.5,1.2-1.5,1,0.2-0.3c-1.2,0.5-0.8,0.2-0.1-0.5c-0.4-0.2-0.3-0.7-0.4-1.3
		c1.7,0.9,3.2,1.6,2.1,1c3.9,1.6,5.1,1.9,2.6-0.5c5.2,2.7,6.5,2.7,9-0.8c0.5,3.4,2.2,3.2,7.8,1.3c-4.9,2.2-5.1,2.4,0.2,0.5
		c-4.5,2.1-3.5,2,1.8,0.7c-3.6,1.1-2.7,0.8-0.4-0.7c-0.4,1.3,1,1.6,2.8,1.6c0.4,0.2,1.2,0.1,1.6-0.4c0.4-0.4,0.6-1.2,0.5-2.3
		c3.6,3.2,4.9,3,7.4-0.1c0.4,3.1,1.9,3.3,5.9,1.5c-2.5,1.4-2.5,0.8-2.1-1.2c0.9,1.7,2.2,2,3.7,1.4c-0.3,0.1-0.4-0.6-0.8-1.8
		c2.6,2.1,4,2.6,6.7,0.5c-0.4,2.4,0.5,2.3,3.1,0.4c-1.3,1-0.8,0.2-0.2-1.1c0.6,1.8,1.2,2.6,3.3,1.9c-0.8,0.6-0.1-0.2,0.9-1.7
		c0.4,1.5,1,2.3,2.1,2.5c0.8,0.3,2.1,0,3.9-0.8c-2.6,1.2-3.2,0.6-4.1-1.6c1.5,2.2,3.2,2.7,5.5,2.1c-0.6,0.4-0.7-0.4-1.6-2
		c1.4,1.4,1.9,2.1,2.1,1.9c-0.5,0-1.4-0.8-3-2.1c3.7,2.5,5.3,2.9,8,0.1c-0.4,3,0.2,2.9,2.8,0.3c-2,1.7-2.1,0.8-2.3-1
		c1.4,2.2,2.4,2.9,4.9,1.5c-1.6,1.1-1.8,0.1-2.4-1.6c0.8,1,1.5,1.8,3.4,1.6c-0.3,1,0.5,1.1,2,0.7c0.4,0,1.5-0.4,3-1.2
		c-1.2,1.4-1.6,2-1.2,2c0.1,0.1,1-0.6,2.5-1.7c-3.1,1.5-3.7,0.7-4.2-1.4c0.9,2,2.1,2.7,5.6,1.8c-1.8,1.6-1.1,1.6,1.3,0.5
		c-1.4,0.3-0.9-0.5-0.5-1.7c-0.2,1.7-0.4,2.5,0.8,1.8c-1.9,0.5-2.4-0.4-3.2-2.1c1,1.1,1.9,1.9,3.7,2.1c0.1,0.7,1,0.9,2.1,0.7
		c1-0.1,2.2-0.6,3.7-1.3c-2.5,1.8-2.3,1-2.3-1.2c1.1,1.9,2.1,2.4,4.2,1.6c-1,0.5-1-0.4-1.3-1.8c1,1.2,1.7,2,2.9,2.1
		c0.8,0.3,2-0.1,3.7-1.2c-1.4,2.6-0.6,2.6,2.8,0.6c-1.9,1.1-1.3,0.4-0.2-0.9c-0.1,1.3,0.1,2.1,2.5,1.7c-1.6,1.2-0.9,1.3,1.4,0.7
		c-0.5,0.2,0.8-0.3,2.4-1c-1.1,1.1-1.4,1.7-0.6,1.7c0.3,0.2,1.6-0.1,3.5-0.7c-2.1,0.8-1.7,0.3-1.1-1.1c1.2,1.4,2.6,1.9,3.6,1.7
		c0.4-0.1,0.4-0.8-0.2-2.3c3,2.8,3.6,2.6,3.1-0.4c2.1,3,3.1,3.2,5.2,0.2c-1.2,2.7-1.4,2.3-1.8-0.3c1.1,2.5,2.1,2.8,4.5,0.7
		c-1.8,1.9-2.2,1.3-2.4-0.7c1.2,2,2.4,2.5,5.1,1.4c-1.2,1.1-0.9,0.4-0.9-1c0.8,1.2,1.2,1.7,2.1,1.2c-0.7,0.3-0.8-0.4-1.2-1.5
		c1,1.1,1.8,1.8,2.7,1.8c0.7,0.2,1.5-0.2,2.5-1.4c-0.6,2.1-0.4,1.4-0.3-0.5c0.5,1.8,1,2.6,3.1,0.9c-1.6,1.6-1.5,0.9-1.3-0.8
		c-0.2,1.7-0.2,2.7,2.4,1.1c-2.5,2-2.5,1.4-2.1-0.9c-0.4,2.1-0.4,3.3,4.8,2.3c-5.3,3.1-5.3-0.2,2.3,1.8c-7.6-0.3-7.6,0.5-4.5,3.4
		c-3.1-1.1-3.1-0.1-2.9,1.4c-0.2-1.8-0.2-2.9,2.8-1.4c-3.5-2.6-3.8-2.7-1.4,0.4c-3.7-2-4.6-1-5.8,1.3c0.7-2.3,1.2-3.3,3.4-0.8
		c-0.8-1.2-1.4-2.1-1.8-2.5c-0.5-0.4-0.8-0.4-0.8,0.1c-0.6,0.3-0.9,1.2-1.2,2.6c-0.6-1.2-1.2-2-0.8-1.8c-1.8-0.9-2.6-0.9-1.9,0.6
		c-2.9-0.9-4.2-0.3-5.4,1.3c1.3-1.7,2.5-2.4,5.4-1.4c-1.5-1.8-1.3-1.9,0.7-0.3c-2.7-1-3.6-0.3-4.6,1.5c0.7-1.9,1.3-2.7,4.3-1.5
		c-3.1-2.2-3.7-2.4-1.4,0.3c-4.7-2.5-6.5-2.1-9.9,1c3.6-3.4,5-3.8,8.2-0.7c-3.2-3.3-4.6-3.1-9,0.5c4-3.7,4.9-4,7-0.3
		c-2.6-3.9-4.1-3.8-10-0.4c4.8-3.4,5.1-3.6,2.1,0.3c0.9-1.3,1.3-2.2,1.3-2.7c0-0.5-0.4-0.5-1.3-0.3c-1,0.3-2.4,0.9-4.3,1.9
		c1.5-1.1,2.4-1.7,3.2-1.9c-0.2-0.5-0.6-0.6-0.3-0.2c-2.1-0.2-3.7,0.1-4.2,1.8c-0.3-1.9-0.2-2.3,2.2-1.2c-1.9-0.7-3.2-1.1-3.5-0.9
		c-1,0-0.9,0.7-0.1,1.9c-1.4-0.8-2.5-1.4-2-1.1c-2.2-0.8-2.9-0.7-1.7,0.6c-2.4-0.6-2.9,0.1-3.2,1.5c-0.6-1.4-1-2.1,0.4-0.8
		c-2.5-2.1-3.2-2.2-2.7,0.4c-1.3-1.1-2.2-1.5-2.7-1.2c-1.3,0-2.1,0.6-3.2,1.7c0.4-1.3,0.5-2,1.5-1.4c-2-1-3-0.5-4.1,1.3
		c0-2.1-0.1-2.8,1.9-0.9c-1.8-1.1-3.1-1.6-4-1.4c-1.4,0.1-2.4,0.9-3.7,2.4c0.5-1.5,0.8-2.3,1.9-1.9c-1-0.5-1,0.2-1.2,1.7
		c-0.3-1.7-0.7-2.5,0.4-1.6c-2.7-1-3.9-0.3-5.3,1.7c0.3-1,0.5-1.7,0.8-2c0.3-0.2,0.7,0.1,1.5,1c-1.6-1.1-2.8-1.6-3.2-1
		c-2.1-0.2-3.2,0.6-4.6,2.1c0.1-1.5,0-2.2,1.2-1.1c-2.4-1.4-3.5-0.9-5,1.2c0.2-2.3,0-3,0.5-0.6c-1.1-1.4-2.1-2-3.3-2
		s-2.6,0.7-4.4,2.1c0.5-1.3,0.6-2,1.7-1.6c-2.5-0.8-3.8-0.5-4.4,1.7c-0.4-1.2-0.6-1.9-0.3-2c0.2-0.2,1,0.1,2.6,1
		c-2.2-1-3.6-1.5-3.7-1.1c-1.6,0-1.9,0.8-1.7,2.5c-1-1.1-1.8-1.8-0.9-1.5c-2.4-1.2-3.2-1.2-2.1,0.5c-3-1-4.1-0.3-5.2,1.5
		c0.1-1.8,0.1-2.6,1.2-0.8c-1.7-2.6-2.4-2.8-3.3,0c-0.6-1.3-1.3-1.9-1.6-1.7c-1.6-0.2-2.9,0.4-4.2,1.8c0.4-1.5,0.6-2.2,2.4-1.4
		c-3-1.3-4.4-1.1-4.9,1.5c-1-2.8-1-3.1,1.9-0.7c-4.2-2.7-5.5-2.6-6.3,0.9c-2-3.6-3.6-3.6-9.3-1.2c1.2-1.2,1.3-1.8,1.1-1.9
		c-1.2-0.4-2.8-0.2-3.4,1.1c-2.1-1.3-3.2-1.5-1.3,0.3c-3.4-1.7-4.5-1.9-3.5,0.6c-2.2-2.2-2.3-1.8-1,0.4c-3-2-4.9-2.3-8.5-0.6
		c0-1-0.4-1.5-1.2-1.7s-2,0.1-3.4,0.5c-0.3-0.2-0.9-0.2-1,0.2c-1.4-0.1-2.4,0.2-2.5,1c-1.3-1.5-2.2-2-0.1-0.5
		c-2.3-1-3.8-1.5-4.6-1.3c-1,0.1-1.2,0.9-1,2.5c-1.5-1.1-2.9-1.8-2.3-1.4c-3.1-1.2-4.3-1.3-2.9,0.8c-4.1-1.7-5.7-1.3-7.6,1.2
		c0.8-2.9,0.8-3.3,0.6-0.4c-0.9-3.3-2.1-3.1-5.9-0.4c3.2-3,2.7-3-1.5-0.4c3.6-2.5,3.9-2.9-0.8-0.7c4.4-3.2,3.8-3.9-4.7-4.4
		c8.5-0.8,9,2.8,4.4-0.4C23.1,11.7,22.7,11.3,18.7,8.9z"/>
</g>
</svg>
