<?xml version="1.0" encoding="utf-8"?>
<!-- Generator: Adobe Illustrator 19.1.0, SVG Export Plug-In . SVG Version: 6.00 Build 0)  -->
<svg version="1.1" id="Layer_1" xmlns="http://www.w3.org/2000/svg" xmlns:xlink="http://www.w3.org/1999/xlink" x="0px" y="0px"
	 viewBox="0 0 200 88.5" style="enable-background:new 0 0 200 88.5;" xml:space="preserve">
<style type="text/css">
	.st0{fill:#9F8572;}
	.st1{fill:#C1A58E;}
	.st2{fill:#49494A;}
	.st3{fill:#5C5C5C;}
	.st4{fill:#7A7B7B;}
	.st5{fill:#A4A4A4;}
	.st6{fill:#B11E3B;}
	.st7{fill:none;stroke:#5C5C5C;stroke-width:0.9732;stroke-linecap:round;stroke-miterlimit:10;}
	.st8{fill:#3A3939;}
	.st9{fill:#D3D3D3;}
	.st10{fill:#BBBBBC;}
	.st11{fill:#787878;}
	.st12{fill:#FFFFFF;}
	.st13{fill:#7D7D7D;}
	.st14{fill:#606161;}
	.st15{fill:url(#SVGID_1_);}
	.st16{fill:url(#SVGID_2_);}
	.st17{fill:#45362E;}
	.st18{fill:url(#SVGID_3_);}
	.st19{fill:url(#SVGID_4_);}
	.st20{fill:url(#SVGID_5_);}
	.st21{fill:url(#SVGID_6_);}
	.st22{fill:url(#SVGID_7_);}
	.st23{fill:#262626;}
	.st24{fill:#353535;}
	.st25{fill:#1B1C1C;stroke:#000000;stroke-width:1.7792;stroke-miterlimit:10;}
	.st26{fill:#161616;}
	.st27{fill:#151415;}
	.st28{fill:#1D1D1D;}
	.st29{fill:#D1D1D1;stroke:#121112;stroke-width:1.8708;stroke-miterlimit:10;}
	.st30{fill:#DDDDDC;}
	.st31{fill:#EFEFEF;}
	.st32{fill:#575757;}
	.st33{fill:#8B182E;}
	.st34{fill:#B11E3B;stroke:#8B182E;stroke-width:1.9013;stroke-miterlimit:10;}
	.st35{fill:none;stroke:#CE2D4D;stroke-width:1.1216;stroke-miterlimit:10;}
	.st36{fill:none;stroke:#575757;stroke-width:2.2432;stroke-miterlimit:10;}
	.st37{fill:#B11E3B;stroke:#8B182E;stroke-width:2.2432;stroke-miterlimit:10;}
	.st38{fill:#B11E3B;stroke:#000000;stroke-width:2.1812;stroke-miterlimit:10;}
	.st39{fill:none;stroke:#444445;stroke-width:1.0906;stroke-miterlimit:10;}
	.st40{fill:#444445;}
	.st41{fill:#B11E3B;stroke:#282827;stroke-width:2.2432;stroke-miterlimit:10;}
	.st42{fill:#B11E3B;stroke:#282827;stroke-width:2.2625;stroke-miterlimit:10;}
	.st43{fill:none;stroke:#575757;stroke-width:2.2625;stroke-miterlimit:10;}
	.st44{fill:#494848;}
	.st45{fill:#6B6B6B;}
	.st46{fill:#CECECD;}
	.st47{fill:none;stroke:#DDDDDC;stroke-width:2.5284;stroke-miterlimit:10;}
	.st48{fill:#B11E3B;stroke:#8B182E;stroke-width:1.9326;stroke-miterlimit:10;}
</style>
<g>
	<g>
		<path class="st6" d="M143.9,50.1c0.3-1.9,0.4-3.9,0.4-5.8c0-1.9-0.1-3.8-0.4-5.7l0-0.1l-7.5,1c-0.4-3.3-1.3-6.3-2.5-9.2l7-2.9
			c-1.5-3.6-3.4-6.9-5.8-10l-6,4.6c-2-2.5-4.2-4.8-6.8-6.8l4.6-6c-3.1-2.4-6.4-4.3-10-5.8l-2.9,7c-2.9-1.2-6-2.1-9.2-2.5l1-7.5
			C103.9,0.1,102,0,100,0c-1.9,0-3.8,0.1-5.7,0.4l0,0l1,7.5C92,8.3,88.9,9.2,86,10.4l-2.9-7c-3.6,1.5-6.9,3.4-10,5.8l4.6,6
			c-2.5,2-4.8,4.2-6.8,6.8l-6-4.6c-2.4,3.1-4.3,6.4-5.8,10l7,2.9c-1.2,2.9-2.1,6-2.5,9.2l-7.5-1c-0.3,1.9-0.4,3.8-0.4,5.8
			c0,1.9,0.1,3.8,0.4,5.7l0,0l7.5-1c0.4,3.3,1.3,6.3,2.5,9.2l-7,2.9c1.5,3.6,3.4,6.9,5.8,10l6-4.6c2,2.5,4.2,4.8,6.8,6.8l-4.6,6
			c3.1,2.4,6.4,4.3,10,5.8l2.9-7c2.9,1.2,6,2.1,9.2,2.5l-1,7.5c1.9,0.3,3.9,0.4,5.8,0.4c1.9,0,3.8-0.1,5.7-0.4l0,0l-1-7.5l0,0
			c3.3-0.4,6.3-1.3,9.2-2.5l2.9,7c3.6-1.5,6.9-3.4,10-5.8l-4.6-6c2.5-2,4.8-4.2,6.8-6.8l6,4.6c2.4-3.1,4.3-6.4,5.8-10l-7-2.9
			c1.2-2.9,2.1-6,2.5-9.2L143.9,50.1z M103.7,72.9C87.9,75,73.4,63.8,71.3,48c-2.1-15.8,9.1-30.4,25-32.4c15.8-2.1,30.4,9.1,32.4,25
			C130.7,56.4,119.6,70.9,103.7,72.9z"/>
		<polygon class="st6" points="98.7,27.7 81.8,27.7 81.8,35.4 96.1,35.4 96.1,67.5 103.9,67.5 103.9,52.9 111.9,52.9 111.9,45.2 
			105.8,45.2 105.3,45.2 103.9,45.2 103.9,35.4 118.2,35.4 118.2,27.7 100.1,27.7 		"/>
	</g>
</g>
</svg>
