<?xml version="1.0" encoding="utf-8"?>
<!-- Generator: Adobe Illustrator 19.2.0, SVG Export Plug-In . SVG Version: 6.00 Build 0)  -->
<svg version="1.1" id="Layer_1" xmlns="http://www.w3.org/2000/svg" xmlns:xlink="http://www.w3.org/1999/xlink" x="0px" y="0px"
	 viewBox="0 0 200 135.3" style="enable-background:new 0 0 200 135.3;" xml:space="preserve">
<style type="text/css">
	.st0{fill:#D8D8D8;}
	.st1{fill:#606161;}
	.st2{fill:#FFFFFF;}
	.st3{fill:url(#SVGID_1_);}
	.st4{fill:url(#SVGID_2_);}
	.st5{fill:#939393;}
	.st6{fill:#A8A8A8;}
	.st7{fill:#B11E3B;}
	.st8{fill:#960F30;}
</style>
<polygon class="st0" points="169.8,135.8 41,135.8 34,128.7 162.7,0 169.8,7 "/>
<g>
	<rect x="25.8" y="-152.8" class="st1" width="148.4" height="124.1"/>
	<g>
		<rect x="74.2" y="-149.9" class="st2" width="2.8" height="65.6"/>
		<rect x="123" y="-149.9" class="st2" width="2.8" height="65.6"/>
	</g>
	
		<linearGradient id="SVGID_1_" gradientUnits="userSpaceOnUse" x1="13.9" y1="289.44" x2="186.1" y2="289.44" gradientTransform="matrix(1 0 0 -1 0 136.49)">
		<stop  offset="0.1516" style="stop-color:#1F471B"/>
		<stop  offset="0.7157" style="stop-color:#1F471B"/>
	</linearGradient>
	<path class="st3" d="M181.3-145.6c-4.7-5.3-5.6-5.3-2.1,1.3c-3.8-5.6-5.1-5.9-7.4,0.5c0-6.3-0.9-5.9-3.6-0.6
		c1.5-3.3,1.1-1.6,0.5,1.7c-0.9-3.3-1.8-4.9-4.5-3.9c1.1-2.7,0.4-2.6-1.4-1c0.4,0-0.4,1.7-1.4,4.2c0.6-3.7,0.8-5.4,0-5.3
		c0-0.3-0.9,1.4-2.3,4.7c2-6.3,1.2-6.4-3.7-2.3c3.3-4.3,2.6-4.3-1.7-1.5c2.5-2.6,1.5-2.1-0.2,0.7c1.2-1,0.8-0.3,0.1,1
		c0.4,0.4,0.3,1.4,0.4,2.7c-1.7-1.9-3.2-3.3-2.1-2.1c-3.9-3.3-5.1-4-2.6,1c-5.2-5.7-6.5-5.7-9,1.8c-0.5-7.2-2.2-6.8-7.8-2.8
		c4.9-4.6,5.1-5-0.2-1c4.5-4.4,3.5-4.2-1.8-1.4c3.6-2.4,2.7-1.7,0.4,1.5c0.4-2.7-1-3.4-2.8-3.3c-0.4-0.4-1.2-0.1-1.6,0.8
		c-0.4,0.9-0.6,2.5-0.5,4.8c-3.6-6.7-4.9-6.3-7.4,0.2c-0.4-6.5-1.9-6.9-5.9-3.2c2.5-2.9,2.5-1.7,2.1,2.4c-0.9-3.6-2.2-4.2-3.7-3
		c0.3-0.3,0.4,1.3,0.8,3.9c-2.6-4.4-4-5.4-6.7-1.1c0.4-5.1-0.5-4.9-3.1-0.8c1.3-2.1,0.8-0.5,0.2,2.3c-0.6-3.8-1.2-5.4-3.3-4
		c0.8-1.3,0.1,0.4-0.9,3.5c-0.4-3.1-1-4.8-2.1-5.2c-0.8-0.6-2.1,0.1-3.9,1.6c2.6-2.5,3.2-1.4,4.1,3.4c-1.5-4.6-3.2-5.6-5.5-4.3
		c0.6-0.8,0.7,0.9,1.6,4.3c-1.4-3-1.9-4.4-2.1-3.9c0.5-0.1,1.4,1.6,3,4.5c-3.7-5.2-5.3-6-8-0.1c0.4-6.4-0.2-6.1-2.8-0.5
		c2-3.5,2.1-1.8,2.3,2.1c-1.4-4.6-2.4-6.1-4.9-3.2c1.6-2.3,1.8-0.3,2.4,3.3c-0.8-2.2-1.5-3.7-3.4-3.4c0.3-2.1-0.5-2.3-2-1.5
		c-0.4-0.1-1.5,0.9-3,2.6c1.2-2.9,1.6-4.2,1.2-4.2c-0.1-0.1-1,1.2-2.5,3.6c3.1-3.1,3.7-1.5,4.2,2.9c-0.9-4.3-2.1-5.8-5.6-3.7
		c1.8-3.5,1.1-3.4-1.3-1c1.4-0.7,0.9,1,0.5,3.6c0.2-3.6,0.4-5.2-0.8-3.8c1.9-1.1,2.4,0.9,3.2,4.4c-1-2.4-1.9-4-3.7-4.4
		c-0.1-1.6-1-1.9-2.1-1.5c-1,0.3-2.2,1.3-3.7,2.8c2.5-3.8,2.3-2.1,2.3,2.6c-1.1-4.1-2.1-5.1-4.2-3.3c1-1,1,0.8,1.3,3.9
		c-1-2.6-1.7-4.2-2.9-4.4c-0.8-0.5-2,0.3-3.7,2.5c1.4-5.5,0.6-5.4-2.8-1.3c1.9-2.4,1.3-0.9,0.2,1.9c0.1-2.8-0.1-4.3-2.5-3.5
		c1.6-2.5,0.9-2.7-1.4-1.4c0.5-0.4-0.8,0.6-2.4,2.2c1.1-2.3,1.4-3.5,0.6-3.7c-0.3-0.4-1.6,0.3-3.5,1.5c2.1-1.6,1.7-0.6,1.1,2.4
		c-1.2-3-2.6-4-3.6-3.6c-0.4,0.2-0.4,1.7,0.2,4.8c-3-5.8-3.6-5.5-3.1,0.8c-2.1-6.3-3.1-6.7-5.2-0.5c1.2-5.7,1.4-4.9,1.8,0.7
		c-1.1-5.4-2.1-6-4.5-1.5c1.8-3.9,2.2-2.8,2.4,1.4c-1.3-4-2.6-5.1-5.3-2.7c1.2-2.2,0.9-0.9,0.9,2.1c-0.8-2.6-1.2-3.6-2.1-2.5
		c0.7-0.6,0.8,0.9,1.2,3.1c-1-2.3-1.8-3.7-2.7-3.9c-0.7-0.4-1.5,0.5-2.5,2.9c0.6-4.4,0.4-2.9,0.3,1c-0.5-3.9-1-5.4-3.1-2
		c1.6-3.4,1.5-1.9,1.3,1.7c0.2-3.5,0.2-5.7-2.4-2.4c2.5-4.3,2.5-3,2.1,1.9c0.4-4.4,0.4-7-4.8-4.9c5.3-6.6,5.3,0.4-2.3-3.7
		c7.6,0.6,7.6-1.1,4.5-7.2c3.1,2.3,3.1,0.2,2.9-2.9c0.2,3.9,0.2,6.1-2.8,2.9c3.4,5.6,3.7,5.6,1.2-0.7c3.8,4.3,4.7,2.2,5.9-2.7
		c-0.7,4.8-1.2,6.9-3.4,1.7c0.8,2.6,1.3,4.3,1.8,5.2s0.8,0.9,0.8-0.3c0.6-0.7,0.9-2.5,1.2-5.4c0.6,2.6,1.2,4.1,0.8,3.8
		c1.8,1.9,2.6,1.8,1.9-1.2c2.9,1.8,4.2,0.6,5.4-2.7c-1.3,3.6-2.5,5.1-5.4,2.9c1.5,3.8,1.3,3.9-0.7,0.6c2.7,2.1,3.6,0.7,4.6-3.1
		c-0.7,4.1-1.3,5.8-4.3,3.1c3.1,4.7,3.7,5,1.4-0.7c4.7,5.2,6.5,4.5,9.9-2.1c-3.6,7.1-5,8-8.2,1.4c3.2,7,4.6,6.4,9-1.1
		c-4,7.7-4.9,8.4-7,0.5c2.6,8.3,4.1,8,10,0.8c-4.8,7.2-5.1,7.5-2.1-0.5c-0.9,2.8-1.3,4.6-1.3,5.6s0.4,1.2,1.3,0.6
		c1-0.6,2.4-1.9,4.3-4.1c-1.5,2.2-2.4,3.6-3.2,4.1c0.2,1.1,0.6,1.3,0.3,0.3c2.3,0.4,3.9-0.4,4.4-3.8c0.3,4,0.2,4.8-2.2,2.5
		c1.9,1.5,3.2,2.3,3.5,1.8c1-0.1,0.9-1.4,0.1-4.1c1.4,1.8,2.5,3,2,2.4c2.2,1.7,2.9,1.6,1.7-1.3c2.4,1.2,2.9-0.3,3.2-3.2
		c0.6,2.9,1,4.4-0.4,1.7c2.5,4.4,3.2,4.6,2.7-0.8c1.3,2.3,2.2,3.2,2.7,2.6c1.3,0.1,2.1-1.3,3.2-3.6c-0.4,2.7-0.5,4.3-1.5,3
		c2,2,3,1.1,4.1-2.7c0,4.4,0.1,5.9-1.9,1.9c1.8,2.4,3.1,3.4,4,2.9c1.4-0.2,2.4-1.9,3.7-5.1c-0.5,3.1-0.8,4.9-1.9,4
		c1,1.1,1-0.3,1.2-3.6c0.3,3.5,0.7,5.2-0.4,3.3c2.7,2.1,3.9,0.6,5.3-3.6c-0.3,2.2-0.5,3.7-0.8,4.1c-0.3,0.5-0.7-0.1-1.5-2.1
		c1.6,2.3,2.8,3.3,3.2,2.2c2.1,0.4,3.2-1.2,4.6-4.3c-0.1,3.1,0,4.7-1.2,2.3c2.4,3,3.5,1.9,5-2.5c-0.2,4.9,0,6.4-0.5,1.3
		c1.1,3,2.1,4.3,3.3,4.2c1.2-0.1,2.6-1.6,4.4-4.3c-0.5,2.8-0.6,4.3-1.7,3.3c2.5,1.8,3.8,1.1,4.4-3.5c0.4,2.5,0.6,3.9,0.3,4.3
		c-0.2,0.4-1-0.3-2.6-2.1c2.2,2.2,3.6,3.2,3.7,2.4c1.6,0.1,1.9-1.7,1.7-5.2c1,2.3,1.8,3.9,0.9,3.1c2.4,2.5,3.2,2.5,2.1-1.1
		c3,2.2,4.1,0.7,5.2-3.1c-0.1,3.9-0.1,5.4-1.2,1.7c1.7,5.6,2.4,5.9,3.3,0c0.6,2.8,1.3,4,1.6,3.6c1.6,0.4,2.9-0.8,4.2-3.8
		c-0.6,3.1-0.8,4.5-2.6,2.8c3,2.7,4.4,2.3,4.9-3.1c1,5.8,1,6.6-1.9,1.5c4.2,5.7,5.5,5.6,6.3-2c2,7.5,3.6,7.7,9.3,2.6
		c-1.2,2.6-1.3,3.9-1.1,4c1.2,0.8,2.8,0.4,3.4-2.4c2.1,2.8,3.2,3.2,1.3-0.6c3.4,3.7,4.5,3.9,3.5-1.3c2.2,4.6,2.3,3.8,1-0.9
		c3,4.1,4.9,4.8,8.5,1.2c0,2.2,0.4,3.2,1.2,3.5c0.8,0.3,2-0.2,3.4-1.1c0.3,0.5,0.9,0.5,1-0.3c1.4,0.2,2.4-0.4,2.5-2.2
		c1.3,3.2,2.2,4.2,0.1,1c2.3,2.1,3.8,3.2,4.6,2.8c1-0.3,1.2-2,1-5.3c1.5,2.2,2.9,3.7,2.3,3c3.1,2.4,4.3,2.6,2.9-1.6
		c4.1,3.6,5.7,2.8,7.6-2.6c-0.8,6-0.8,7-0.6,0.8c0.9,6.9,2.1,6.6,5.9,0.8c-3.2,6.4-2.7,6.4,1.5,0.8c-3.6,5.3-3.9,6.1,0.8,1.4
		c-4.4,6.8-3.8,8.2,4.7,9.2c-8.5,1.7-9-5.9-4.4,0.9C176.9-151.5,177.3-150.6,181.3-145.6z"/>
	
		<linearGradient id="SVGID_2_" gradientUnits="userSpaceOnUse" x1="13.8409" y1="287.74" x2="186.1409" y2="287.74" gradientTransform="matrix(1 0 0 -1 0 136.49)">
		<stop  offset="0.3159" style="stop-color:#427136"/>
		<stop  offset="0.6127" style="stop-color:#427136"/>
	</linearGradient>
	<path class="st4" d="M18.7-155.1c4.7,2.5,5.6,2.5,2.1-0.6c3.8,2.6,5.1,2.8,7.4-0.2c0,3,0.9,2.8,3.6,0.3c-1.5,1.6-1.1,0.8-0.5-0.8
		c0.9,1.6,1.8,2.3,4.5,1.8c-1.1,1.3-0.4,1.3,1.4,0.5c-0.4,0,0.4-0.8,1.4-2c-0.6,1.7-0.8,2.6,0,2.5c0,0.1,0.9-0.7,2.3-2.2
		c-2,3-1.2,3,3.7,1.1c-3.3,2-2.6,2,1.7,0.7c-2.5,1.2-1.5,1,0.2-0.3c-1.2,0.5-0.8,0.2-0.1-0.5c-0.4-0.2-0.3-0.7-0.4-1.3
		c1.7,0.9,3.2,1.6,2.1,1c3.9,1.6,5.1,1.9,2.6-0.5c5.2,2.7,6.5,2.7,9-0.8c0.5,3.4,2.2,3.2,7.8,1.3c-4.9,2.2-5.1,2.4,0.2,0.5
		c-4.5,2.1-3.5,2,1.8,0.7c-3.6,1.1-2.7,0.8-0.4-0.7c-0.4,1.3,1,1.6,2.8,1.6c0.4,0.2,1.2,0.1,1.6-0.4c0.4-0.4,0.6-1.2,0.5-2.3
		c3.6,3.2,4.9,3,7.4-0.1c0.4,3.1,1.9,3.3,5.9,1.5c-2.5,1.4-2.5,0.8-2.1-1.2c0.9,1.7,2.2,2,3.7,1.4c-0.3,0.1-0.4-0.6-0.8-1.8
		c2.6,2.1,4,2.6,6.7,0.5c-0.4,2.4,0.5,2.3,3.1,0.4c-1.3,1-0.8,0.2-0.2-1.1c0.6,1.8,1.2,2.6,3.3,1.9c-0.8,0.6-0.1-0.2,0.9-1.7
		c0.4,1.5,1,2.3,2.1,2.5c0.8,0.3,2.1,0,3.9-0.8c-2.6,1.2-3.2,0.6-4.1-1.6c1.5,2.2,3.2,2.7,5.5,2.1c-0.6,0.4-0.7-0.4-1.6-2
		c1.4,1.4,1.9,2.1,2.1,1.9c-0.5,0-1.4-0.8-3-2.1c3.7,2.5,5.3,2.9,8,0.1c-0.4,3,0.2,2.9,2.8,0.3c-2,1.7-2.1,0.8-2.3-1
		c1.4,2.2,2.4,2.9,4.9,1.5c-1.6,1.1-1.8,0.1-2.4-1.6c0.8,1,1.5,1.8,3.4,1.6c-0.3,1,0.5,1.1,2,0.7c0.4,0,1.5-0.4,3-1.2
		c-1.2,1.4-1.6,2-1.2,2c0.1,0.1,1-0.6,2.5-1.7c-3.1,1.5-3.7,0.7-4.2-1.4c0.9,2,2.1,2.7,5.6,1.8c-1.8,1.6-1.1,1.6,1.3,0.5
		c-1.4,0.3-0.9-0.5-0.5-1.7c-0.2,1.7-0.4,2.5,0.8,1.8c-1.9,0.5-2.4-0.4-3.2-2.1c1,1.1,1.9,1.9,3.7,2.1c0.1,0.7,1,0.9,2.1,0.7
		c1-0.1,2.2-0.6,3.7-1.3c-2.5,1.8-2.3,1-2.3-1.2c1.1,1.9,2.1,2.4,4.2,1.6c-1,0.5-1-0.4-1.3-1.8c1,1.2,1.7,2,2.9,2.1
		c0.8,0.3,2-0.1,3.7-1.2c-1.4,2.6-0.6,2.6,2.8,0.6c-1.9,1.1-1.3,0.4-0.2-0.9c-0.1,1.3,0.1,2.1,2.5,1.7c-1.6,1.2-0.9,1.3,1.4,0.7
		c-0.5,0.2,0.8-0.3,2.4-1c-1.1,1.1-1.4,1.7-0.6,1.7c0.3,0.2,1.6-0.1,3.5-0.7c-2.1,0.8-1.7,0.3-1.1-1.1c1.2,1.4,2.6,1.9,3.6,1.7
		c0.4-0.1,0.4-0.8-0.2-2.3c3,2.8,3.6,2.6,3.1-0.4c2.1,3,3.1,3.2,5.2,0.2c-1.2,2.7-1.4,2.3-1.8-0.3c1.1,2.5,2.1,2.8,4.5,0.7
		c-1.8,1.9-2.2,1.3-2.4-0.7c1.2,2,2.4,2.5,5.1,1.4c-1.2,1.1-0.9,0.4-0.9-1c0.8,1.2,1.2,1.7,2.1,1.2c-0.7,0.3-0.8-0.4-1.2-1.5
		c1,1.1,1.8,1.8,2.7,1.8c0.7,0.2,1.5-0.2,2.5-1.4c-0.6,2.1-0.4,1.4-0.3-0.5c0.5,1.8,1,2.6,3.1,0.9c-1.6,1.6-1.5,0.9-1.3-0.8
		c-0.2,1.7-0.2,2.7,2.4,1.1c-2.5,2-2.5,1.4-2.1-0.9c-0.4,2.1-0.4,3.3,4.8,2.3c-5.3,3.1-5.3-0.2,2.3,1.8c-7.6-0.3-7.6,0.5-4.5,3.4
		c-3.1-1.1-3.1-0.1-2.9,1.4c-0.2-1.8-0.2-2.9,2.8-1.4c-3.5-2.6-3.8-2.7-1.4,0.4c-3.7-2-4.6-1-5.8,1.3c0.7-2.3,1.2-3.3,3.4-0.8
		c-0.8-1.2-1.4-2.1-1.8-2.5c-0.5-0.4-0.8-0.4-0.8,0.1c-0.6,0.3-0.9,1.2-1.2,2.6c-0.6-1.2-1.2-2-0.8-1.8c-1.8-0.9-2.6-0.9-1.9,0.6
		c-2.9-0.9-4.2-0.3-5.4,1.3c1.3-1.7,2.5-2.4,5.4-1.4c-1.5-1.8-1.3-1.9,0.7-0.3c-2.7-1-3.6-0.3-4.6,1.5c0.7-1.9,1.3-2.7,4.3-1.5
		c-3.1-2.2-3.7-2.4-1.4,0.3c-4.7-2.5-6.5-2.1-9.9,1c3.6-3.4,5-3.8,8.2-0.7c-3.2-3.3-4.6-3.1-9,0.5c4-3.7,4.9-4,7-0.3
		c-2.6-3.9-4.1-3.8-10-0.4c4.8-3.4,5.1-3.6,2.1,0.3c0.9-1.3,1.3-2.2,1.3-2.7s-0.4-0.5-1.3-0.3c-1,0.3-2.4,0.9-4.3,1.9
		c1.5-1.1,2.4-1.7,3.2-1.9c-0.2-0.5-0.6-0.6-0.3-0.2c-2.1-0.2-3.7,0.1-4.2,1.8c-0.3-1.9-0.2-2.3,2.2-1.2c-1.9-0.7-3.2-1.1-3.5-0.9
		c-1,0-0.9,0.7-0.1,1.9c-1.4-0.8-2.5-1.4-2-1.1c-2.2-0.8-2.9-0.7-1.7,0.6c-2.4-0.6-2.9,0.1-3.2,1.5c-0.6-1.4-1-2.1,0.4-0.8
		c-2.5-2.1-3.2-2.2-2.7,0.4c-1.3-1.1-2.2-1.5-2.7-1.2c-1.3,0-2.1,0.6-3.2,1.7c0.4-1.3,0.5-2,1.5-1.4c-2-1-3-0.5-4.1,1.3
		c0-2.1-0.1-2.8,1.9-0.9c-1.8-1.1-3.1-1.6-4-1.4c-1.4,0.1-2.4,0.9-3.7,2.4c0.5-1.5,0.8-2.3,1.9-1.9c-1-0.5-1,0.2-1.2,1.7
		c-0.3-1.7-0.7-2.5,0.4-1.6c-2.7-1-3.9-0.3-5.3,1.7c0.3-1,0.5-1.7,0.8-2c0.3-0.2,0.7,0.1,1.5,1c-1.6-1.1-2.8-1.6-3.2-1
		c-2.1-0.2-3.2,0.6-4.6,2.1c0.1-1.5,0-2.2,1.2-1.1c-2.4-1.4-3.5-0.9-5,1.2c0.2-2.3,0-3,0.5-0.6c-1.1-1.4-2.1-2-3.3-2
		s-2.6,0.7-4.4,2.1c0.5-1.3,0.6-2,1.7-1.6c-2.5-0.8-3.8-0.5-4.4,1.7c-0.4-1.2-0.6-1.9-0.3-2c0.2-0.2,1,0.1,2.6,1
		c-2.2-1-3.6-1.5-3.7-1.1c-1.6,0-1.9,0.8-1.7,2.5c-1-1.1-1.8-1.8-0.9-1.5c-2.4-1.2-3.2-1.2-2.1,0.5c-3-1-4.1-0.3-5.2,1.5
		c0.1-1.8,0.1-2.6,1.2-0.8c-1.7-2.6-2.4-2.8-3.3,0c-0.6-1.3-1.3-1.9-1.6-1.7c-1.6-0.2-2.9,0.4-4.2,1.8c0.4-1.5,0.6-2.2,2.4-1.4
		c-3-1.3-4.4-1.1-4.9,1.5c-1-2.8-1-3.1,1.9-0.7c-4.2-2.7-5.5-2.6-6.3,0.9c-2-3.6-3.6-3.6-9.3-1.2c1.2-1.2,1.3-1.8,1.1-1.9
		c-1.2-0.4-2.8-0.2-3.4,1.1c-2.1-1.3-3.2-1.5-1.3,0.3c-3.4-1.7-4.5-1.9-3.5,0.6c-2.2-2.2-2.3-1.8-1,0.4c-3-2-4.9-2.3-8.5-0.6
		c0-1-0.4-1.5-1.2-1.7c-0.8-0.2-2,0.1-3.4,0.5c-0.3-0.2-0.9-0.2-1,0.2c-1.4-0.1-2.4,0.2-2.5,1c-1.3-1.5-2.2-2-0.1-0.5
		c-2.3-1-3.8-1.5-4.6-1.3c-1,0.1-1.2,0.9-1,2.5c-1.5-1.1-2.9-1.8-2.3-1.4c-3.1-1.2-4.3-1.3-2.9,0.8c-4.1-1.7-5.7-1.3-7.6,1.2
		c0.8-2.9,0.8-3.3,0.6-0.4c-0.9-3.3-2.1-3.1-5.9-0.4c3.2-3,2.7-3-1.5-0.4c3.6-2.5,3.9-2.9-0.8-0.7c4.4-3.2,3.8-3.9-4.7-4.4
		c8.5-0.8,9,2.8,4.4-0.4C23.1-152.3,22.7-152.7,18.7-155.1z"/>
</g>
<rect x="34" class="st5" width="128.7" height="128.7"/>
<polygon class="st6" points="34,0 34,104.5 162.7,0 "/>
<rect x="34" class="st7" width="10.8" height="128.7"/>
<polygon class="st8" points="44.8,95.7 34,104.5 34,128.7 44.8,128.7 "/>
<g>
	<path class="st2" d="M50.1,65.2L48.4,67v3.1h-3.2V57.6h3.2V63l4.8-5.4h3.7l-4.7,5.2l5,7.3h-3.8L50.1,65.2z"/>
	<path class="st2" d="M62.4,67.8l-0.9,2.3h-3.3l5.4-12.5h3.3l5.3,12.5h-3.4l-0.9-2.3H62.4z M65.1,60.8l-1.8,4.6h3.6L65.1,60.8z"/>
	<path class="st2" d="M78.7,60.2v10h-3.2v-10h-3.7v-2.6h10.7v2.6H78.7z"/>
	<path class="st2" d="M86.2,67.8l-0.9,2.3H82l5.4-12.5h3.3L96,70.1h-3.4l-0.9-2.3H86.2z M88.9,60.8l-1.8,4.6h3.6L88.9,60.8z"/>
	<path class="st2" d="M106.5,67.5v2.7H98V57.6h3.2v9.9H106.5z"/>
	<path class="st2" d="M121.7,63.8c0,3.6-2.9,6.4-6.8,6.4c-3.9,0-6.8-2.8-6.8-6.4c0-3.7,2.9-6.4,6.8-6.4
		C118.8,57.5,121.7,60.2,121.7,63.8z M111.4,63.9c0,2.1,1.6,3.7,3.5,3.7c1.9,0,3.5-1.6,3.5-3.7c0-2.1-1.5-3.7-3.5-3.7
		C113,60.2,111.4,61.8,111.4,63.9z"/>
	<path class="st2" d="M135.1,63.8v4.9c-1.3,0.9-3.5,1.6-5.2,1.6c-3.8,0-6.7-2.8-6.7-6.4c0-3.6,3-6.4,6.9-6.4c1.9,0,3.8,0.7,5.1,1.9
		l-1.8,2.2c-0.9-0.8-2.2-1.4-3.3-1.4c-2.1,0-3.6,1.6-3.6,3.7c0,2.1,1.6,3.7,3.7,3.7c0.6,0,1.5-0.2,2.2-0.6v-3.2H135.1z"/>
	<path class="st2" d="M141.4,60.1v2.5h6v2.5h-6v2.5h6.8v2.5h-10V57.6h9.8v2.5H141.4z"/>
	<path class="st2" d="M159.9,70.1l-5.8-7.7v7.7h-3V57.6h2.8l5.8,7.7v-7.7h3v12.5H159.9z"/>
</g>
</svg>
