<?xml version="1.0" encoding="utf-8"?>
<!-- Generator: Adobe Illustrator 19.1.0, SVG Export Plug-In . SVG Version: 6.00 Build 0)  -->
<svg version="1.1" id="Layer_1" xmlns="http://www.w3.org/2000/svg" xmlns:xlink="http://www.w3.org/1999/xlink" x="0px" y="0px"
	 viewBox="0 0 200 128.5" style="enable-background:new 0 0 200 128.5;" xml:space="preserve">
<style type="text/css">
	.st0{fill:#9F8572;}
	.st1{fill:#C1A58E;}
	.st2{fill:#49494A;}
	.st3{fill:#5C5C5C;}
	.st4{fill:#7A7B7B;}
	.st5{fill:#A4A4A4;}
	.st6{fill:#B11E3B;}
	.st7{fill:none;stroke:#5C5C5C;stroke-width:0.9732;stroke-linecap:round;stroke-miterlimit:10;}
	.st8{fill:#3A3939;}
	.st9{fill:#D3D3D3;}
	.st10{fill:#BBBBBC;}
	.st11{fill:#787878;}
	.st12{fill:#FFFFFF;}
	.st13{fill:#7D7D7D;}
	.st14{fill:#606161;}
	.st15{fill:url(#SVGID_1_);}
	.st16{fill:url(#SVGID_2_);}
	.st17{fill:#45362E;}
	.st18{fill:url(#SVGID_3_);}
	.st19{fill:url(#SVGID_4_);}
	.st20{fill:url(#SVGID_5_);}
	.st21{fill:url(#SVGID_6_);}
	.st22{fill:url(#SVGID_7_);}
	.st23{fill:#262626;}
	.st24{fill:#353535;}
	.st25{fill:#1B1C1C;stroke:#000000;stroke-width:1.7792;stroke-miterlimit:10;}
	.st26{fill:#161616;}
	.st27{fill:#151415;}
	.st28{fill:#1D1D1D;}
	.st29{fill:#D1D1D1;stroke:#121112;stroke-width:1.8708;stroke-miterlimit:10;}
	.st30{fill:#DDDDDC;}
	.st31{fill:#EFEFEF;}
	.st32{fill:#575757;}
	.st33{fill:#8B182E;}
	.st34{fill:#B11E3B;stroke:#8B182E;stroke-width:1.9013;stroke-miterlimit:10;}
	.st35{fill:none;stroke:#CE2D4D;stroke-width:1.1216;stroke-miterlimit:10;}
	.st36{fill:none;stroke:#575757;stroke-width:2.2432;stroke-miterlimit:10;}
	.st37{fill:#B11E3B;stroke:#8B182E;stroke-width:2.2432;stroke-miterlimit:10;}
	.st38{fill:#B11E3B;stroke:#000000;stroke-width:2.1812;stroke-miterlimit:10;}
	.st39{fill:none;stroke:#444445;stroke-width:1.0906;stroke-miterlimit:10;}
	.st40{fill:#444445;}
	.st41{fill:#B11E3B;stroke:#282827;stroke-width:2.2432;stroke-miterlimit:10;}
	.st42{fill:#B11E3B;stroke:#282827;stroke-width:2.2625;stroke-miterlimit:10;}
	.st43{fill:none;stroke:#575757;stroke-width:2.2625;stroke-miterlimit:10;}
	.st44{fill:#494848;}
	.st45{fill:#6B6B6B;}
	.st46{fill:#CECECD;}
	.st47{fill:none;stroke:#DDDDDC;stroke-width:2.5284;stroke-miterlimit:10;}
	.st48{fill:#B11E3B;stroke:#8B182E;stroke-width:1.9326;stroke-miterlimit:10;}
</style>
<g>
	<g>
		<path class="st44" d="M97.4,125.7c-1,0-1.8-0.8-1.8-1.8v-15c0-1,0.8-1.8,1.8-1.8s1.8,0.8,1.8,1.8v15
			C99.2,124.9,98.4,125.7,97.4,125.7z"/>
	</g>
	<g>
		<rect x="97.9" y="110.2" class="st45" width="1.3" height="12.2"/>
	</g>
	<g>
		<g>
			<g>
				<circle class="st46" cx="97.4" cy="54.5" r="50"/>
			</g>
			<g>
				<path class="st12" d="M97.4,105.7c-8.2,0-16.3-2-23.7-5.9c-12.1-6.3-21-17-25.1-30.1c-4.1-13.1-2.8-26.9,3.5-39
					C65.2,5.7,96.2-4,121.2,9.1c12.1,6.3,21,17,25.1,30.1s2.8,26.9-3.5,39c-6.3,12.1-17,21-30.1,25.1
					C107.7,104.9,102.5,105.7,97.4,105.7z M97.5,5.6c-17.6,0-34.6,9.5-43.3,26.2c-6.1,11.6-7.2,24.8-3.4,37.2
					c3.9,12.5,12.4,22.6,23.9,28.7c23.8,12.5,53.4,3.3,65.9-20.6c12.5-23.9,3.3-53.4-20.6-65.9C112.9,7.4,105.1,5.6,97.5,5.6z"/>
			</g>
		</g>
		<g>
			<g>
				<path class="st12" d="M85.8,102.7c-4.3,0-8.4-1-12.1-2.9c-8.4-4.4-13.9-13.3-15.2-25.1c-1.4-11.6,1.4-24.6,7.7-36.7
					c13.1-25,37.8-38,55.1-28.9c8.4,4.4,13.9,13.3,15.2,25.1c1.4,11.6-1.4,24.6-7.7,36.7c-6.3,12-15.5,21.7-25.8,27.2
					C97.1,101.2,91.3,102.7,85.8,102.7z M109.1,8.6c-14.5,0-31,11.8-40.9,30.6c-6.1,11.6-8.7,24.2-7.4,35.3c1.3,11,6.3,19.2,14,23.3
					c7.7,4.1,17.4,3.4,27.1-1.7c9.9-5.3,18.7-14.6,24.8-26.2s8.7-24.2,7.4-35.3c-1.3-11-6.3-19.2-14-23.3
					C116.7,9.4,113,8.6,109.1,8.6z"/>
			</g>
		</g>
		<g>
			<g>
				<path class="st12" d="M77.5,100.7c-1.4,0-2.7-0.3-3.9-0.9c-4.7-2.5-6.5-9.6-5-20c1.4-10.1,5.6-22.2,11.9-34.1
					c6.3-11.9,13.8-22.3,21.3-29.2c7.8-7.2,14.6-9.8,19.3-7.3c9.5,5,6.4,28.8-6.9,54.2C108,75.2,100.5,85.6,93,92.5
					C87.1,97.9,81.8,100.7,77.5,100.7z M117.3,10.6c-3.6,0-8.5,2.6-13.9,7.6C96.2,24.9,88.8,35,82.7,46.7
					C76.5,58.4,72.4,70.3,71,80.1c-1.3,9.3,0.1,15.7,3.8,17.6s9.8-0.6,16.6-6.9c7.3-6.7,14.7-16.9,20.8-28.6
					c12.3-23.4,15.9-46.8,7.9-51C119.3,10.8,118.4,10.6,117.3,10.6z"/>
			</g>
		</g>
		<g>
			<g>
				
					<rect x="96.3" y="4.4" transform="matrix(0.8856 0.4644 -0.4644 0.8856 36.4322 -39.0189)" class="st12" width="2.4" height="100"/>
			</g>
		</g>
		<g>
			<g>
				
					<rect x="47.4" y="53.3" transform="matrix(0.8857 0.4642 -0.4642 0.8857 36.4135 -39.0069)" class="st12" width="100" height="2.4"/>
			</g>
		</g>
		<g>
			<g>
				
					<rect x="58.7" y="37.7" transform="matrix(0.8857 0.4642 -0.4642 0.8857 30.1272 -44.5667)" class="st12" width="93.7" height="2.4"/>
			</g>
		</g>
		<g>
			<g>
				
					<rect x="78.1" y="22.2" transform="matrix(0.8857 0.4642 -0.4642 0.8857 23.8404 -50.1258)" class="st12" width="71.2" height="2.4"/>
			</g>
		</g>
		<g>
			<g>
				
					<rect x="42.4" y="68.8" transform="matrix(0.8857 0.4642 -0.4642 0.8857 42.6997 -33.4474)" class="st12" width="93.7" height="2.4"/>
			</g>
		</g>
		<g>
			<g>
				
					<rect x="45.6" y="84.4" transform="matrix(0.8857 0.4642 -0.4642 0.8857 48.9915 -27.893)" class="st12" width="71.2" height="2.4"/>
			</g>
		</g>
	</g>
	<g>
		<path class="st44" d="M97.3,110.8c-8.8,0-17.7-2.1-26.1-6.4c-0.9-0.5-1.3-1.7-0.8-2.6c0.5-0.9,1.7-1.3,2.6-0.8
			c12.4,6.5,26.6,7.8,40,3.6s24.3-13.3,30.9-25.8c13.4-25.6,3.5-57.5-22.1-70.9c-0.9-0.5-1.3-1.7-0.8-2.6s1.7-1.3,2.6-0.8
			c27.5,14.4,38.2,48.5,23.8,76.1C137.3,99.8,117.6,110.8,97.3,110.8z"/>
	</g>
	<g>
		<path class="st44" d="M122.1,126.2H72.8c0-3.9,11-7,24.7-7S122.1,122.4,122.1,126.2z"/>
	</g>
	<g>
		<rect x="72.8" y="126.2" class="st45" width="49.3" height="1.6"/>
	</g>
</g>
</svg>
